<svg width="294" height="294" viewBox="0 0 294 294" fill="none" xmlns="http://www.w3.org/2000/svg">
<mask id="mask0_1111_34750" style="mask-type:alpha" maskUnits="userSpaceOnUse" x="0" y="0" width="294" height="294">
<circle cx="147" cy="147" r="147" fill="#FF8787"/>
</mask>
<g mask="url(#mask0_1111_34750)">
<circle cx="147" cy="147" r="147" fill="#6b6b6b"/>
<g opacity="0.1">
<path d="M289.37 345.986C289.863 325.204 294.078 305.895 303.268 288.684C313.592 269.351 327.783 257.47 345.55 252.734C346.466 252.489 347.422 252.374 348.357 252.398C349.836 252.437 350.889 253.588 351.144 255.225C351.396 256.818 350.722 258.401 349.38 259.207C348.772 259.572 348.127 259.85 347.482 260.095C325.955 268.29 311.627 286.745 302.842 312.901C299.316 323.395 297.644 334.498 297.652 345.986C294.897 345.986 292.136 345.986 289.37 345.986Z" fill="#212121"/>
<path d="M169.315 345.986C166.883 341.413 166.082 336.183 165.678 330.794C165.622 330.07 165.519 329.35 165.396 328.27C164.169 328.861 163.024 329.23 162.023 329.94C160.344 331.13 158.794 332.627 157.115 333.827C155.832 334.743 154.483 335.645 153.078 336.101C150.92 336.802 149.037 335.127 148.488 332.33C147.981 329.758 148.218 327.191 148.826 324.72C149.437 322.244 150.234 319.844 150.983 317.301C150.405 317.484 149.808 317.671 149.211 317.858C146.72 318.626 144.214 318.942 141.723 317.978C139.213 317.009 137.312 315.118 136.759 311.61C136.352 309.01 137.056 306.745 138.468 304.941C139.784 303.261 141.167 301.639 142.657 300.233C145.349 297.695 148.184 295.411 150.883 292.878C153.63 290.296 156.299 287.571 158.968 284.855C159.487 284.327 159.906 283.602 160.303 282.902C160.94 281.765 160.837 281.045 159.899 280.306C158.29 279.039 156.488 278.842 154.672 278.775C154.357 281.045 153.841 281.496 152.11 281.117C150.483 280.757 149.156 279.337 148.922 277.6C148.637 275.483 149.363 273.833 150.72 272.888C151.847 272.105 153.148 271.453 154.405 271.328C157.626 271.011 160.629 272.101 163.191 274.749C166.241 277.907 166.783 282.475 164.473 286.553C163.428 288.396 162.167 290.104 160.803 291.558C158.49 294.015 156.062 296.304 153.604 298.516C149.975 301.788 146.446 305.195 143.339 309.288C143.043 309.677 142.783 310.113 142.435 310.632C143.558 311.692 144.741 311.788 145.893 311.582C147.758 311.251 149.601 310.723 151.454 310.281C152.444 310.046 153.434 309.686 154.431 309.614C156.447 309.47 157.867 311.284 157.752 313.899C157.7 315.094 157.448 316.313 157.122 317.44C156.384 320.012 155.532 322.527 154.75 325.079C154.442 326.078 154.197 327.104 154.101 328.314C154.627 327.901 155.143 327.459 155.684 327.08C157.778 325.612 159.843 324.043 162.004 322.752C163.046 322.128 164.273 321.932 165.437 321.749C168.317 321.298 170.464 322.925 171.491 326.437C171.973 328.093 172.354 329.868 172.462 331.624C172.777 336.893 174.056 341.667 176.391 345.981C174.03 345.986 171.672 345.986 169.315 345.986Z" fill="#212121"/>
<path d="M67.4512 345.985C68.4298 342.842 69.1972 339.551 70.4205 336.576C76.2332 322.435 83.9438 310.281 93.6933 300.367C97.1261 296.879 100.807 293.899 105.1 292.469C107.061 291.817 108.97 291.687 110.842 293.174C112.128 294.196 112.903 295.497 113.129 297.378C113.248 298.366 113.326 299.364 113.4 300.362C113.467 301.288 113.852 301.644 114.549 301.586C116.288 301.437 117.693 300.358 118.909 298.856C119.105 298.616 119.075 297.896 118.979 297.464C118.149 293.75 117.582 289.974 117.971 286.121C118.13 284.533 118.594 282.877 119.246 281.514C120.588 278.717 123.302 278.472 124.862 281.078C125.759 282.575 126.486 284.456 126.782 286.298C127.283 289.436 127.476 292.675 127.628 295.89C127.776 299.096 126.76 301.6 124.551 303.289C123.105 304.393 121.8 305.809 120.351 306.912C117.963 308.736 115.402 309.892 112.566 309.494C108.633 308.942 106.308 305.674 106.179 300.559C106.168 300.055 106.179 299.551 106.179 298.774C105.274 299.196 104.54 299.48 103.851 299.878C100.837 301.615 98.1937 304.096 95.7174 306.869C85.953 317.79 78.1757 330.659 72.9154 345.985C71.0878 345.985 69.2713 345.985 67.4512 345.985Z" fill="#212121"/>
<path d="M132.729 173.292C136.45 168.052 140.243 163.263 144.739 159.42C144.573 159.118 144.484 158.892 144.35 158.719C141.373 154.751 140.135 149.895 140.039 144.473C140.031 143.955 140.076 143.422 140.18 142.923C140.41 141.829 140.94 141.076 141.837 140.893C142.76 140.701 143.549 141.114 143.994 142.155C144.328 142.937 144.543 143.839 144.676 144.727C145.225 148.35 145.97 151.843 147.816 154.804C148.421 155.773 148.858 155.984 149.681 155.154C152.361 152.448 155.134 149.895 157.807 147.179C160.376 144.569 163.553 145.341 165.021 149.127C165.469 150.289 165.792 151.55 166.062 152.803C167.241 158.259 168.368 163.734 169.536 169.199C169.94 171.089 170.407 172.956 170.837 174.837C172.316 181.329 175.538 186.108 179.708 189.957C179.841 190.081 179.993 190.173 180.238 190.35C180.412 189.899 180.575 189.486 180.727 189.069C182.562 183.973 184.205 178.743 186.273 173.81C188.646 168.158 191.333 162.712 194.013 157.285C195.459 154.353 198.662 154.597 200.037 157.769C200.931 159.832 201.594 162.136 202.043 164.434C202.781 168.186 203.292 172.02 203.845 175.83C204.782 182.308 206.406 188.469 208.842 194.266C210.291 197.711 211.741 201.156 213.216 204.582C215.8 210.585 219.118 215.858 223.121 220.33C225.119 222.562 227.366 224.486 229.664 226.18C233.115 228.723 236.708 230.935 240.24 233.286C240.418 233.406 240.604 233.516 240.793 233.608C242.183 234.255 242.335 234.663 241.727 236.439C241.108 238.243 239.97 239.337 238.479 239.241C236.785 239.135 235.01 238.953 233.438 238.209C230.157 236.654 226.917 234.879 223.781 232.878C217.79 229.044 213.175 223.046 209.183 216.271C205.338 209.745 202.047 202.735 199.155 195.422C196.479 188.647 195.322 181.31 194.551 173.849C194.477 173.114 194.384 172.385 194.291 171.656C194.284 171.593 194.203 171.545 194.084 171.406C193.91 171.78 193.724 172.126 193.583 172.495C190.837 179.846 188.427 187.361 187.1 195.388C186.34 199.99 183.178 202.418 179.823 200.657C172.123 196.607 165.81 190.437 162.856 179.947C161.084 173.652 159.753 167.15 158.226 160.739C158.118 160.284 158.025 159.823 157.885 159.18C157.532 159.463 157.258 159.665 156.995 159.895C155.397 161.277 153.859 162.779 152.202 164.021C145.499 169.045 140.094 175.888 135.405 183.767C134.953 184.525 134.508 185.297 133.996 185.988C131.943 188.771 128.873 188.671 127.205 185.489C126.345 183.853 125.785 181.819 125.463 179.861C123.176 166.013 123.494 152.227 126.349 138.561C126.972 135.577 127.665 132.606 128.488 129.703C130.827 121.445 134.693 114.579 139.616 108.495C149.395 96.4123 161.188 89.0228 173.669 83.068C178.184 80.9136 182.711 78.7591 187.115 76.2687C189.465 74.9396 191.641 73.0202 193.776 71.1441C195.974 69.2103 197.339 66.4369 197.821 62.9964C197.928 62.2239 198.088 61.4657 198.258 60.7124C198.503 59.6232 198.977 58.793 199.941 58.817C200.89 58.841 201.428 59.652 201.613 60.7508C202.084 63.553 202.169 66.3649 201.531 69.1575C200.697 72.7851 199.044 75.7697 196.846 78.1401C195.018 80.1074 193.083 82.0364 190.966 83.3943C186.447 86.2973 181.851 89.0276 177.165 91.4412C170.477 94.8864 164.131 99.1906 157.885 103.759C156.053 105.097 154.385 106.868 152.769 108.634C150.4 111.215 148.135 113.955 145.844 116.657C141.414 121.877 138.285 128.211 136.361 135.529C134.215 143.691 132.603 152.021 132.302 160.663C132.169 164.52 132.447 168.402 132.547 172.275C132.558 172.51 132.632 172.75 132.729 173.292Z" fill="#212121"/>
<path d="M299.573 147.174C297.713 147.03 295.892 147.059 294.117 146.704C291.155 146.119 288.423 144.598 285.906 142.506C282.503 139.67 280.964 135.26 280.074 130.394C279.196 125.587 279.411 120.774 280.386 116.028C282.143 107.482 285.594 100.304 290.825 94.5794C294.962 90.0545 299.533 86.379 304.285 83.0633C304.663 82.7994 305.038 82.5163 305.368 82.2764C304.533 80.5394 303.74 78.8887 302.928 77.2045C301.39 77.6363 299.774 78.2073 298.128 78.5336C295.047 79.1478 292.082 78.62 289.327 76.6191C285.079 73.5289 283.548 68.2651 285.246 62.3727C286.817 56.9025 289.839 52.8911 293.327 49.4315C294.569 48.1983 295.948 48.3566 296.856 49.4843C297.709 50.5447 297.809 52.1809 296.986 53.9372C296.148 55.7222 295.14 57.3776 294.313 59.1722C293.423 61.1107 292.552 63.0877 291.87 65.1558C291.31 66.8544 291.614 67.9004 292.901 68.7497C293.987 69.4647 295.214 70.0885 296.411 70.2036C298.209 70.3764 300.033 70.0597 301.846 69.9589C302.428 69.9253 302.58 69.4695 302.721 68.7977C303.121 66.912 303.566 65.0406 304.1 63.2124C304.318 62.4687 304.741 61.7633 305.19 61.2067C306.013 60.1846 307.039 59.9687 308.1 60.5013C309.134 61.0196 309.716 62.08 309.809 63.4859C309.86 64.2968 309.764 65.1318 309.671 65.9475C309.427 68.0588 309.056 70.1461 308.904 72.2669C308.741 74.5558 309.212 76.6335 310.854 77.9002C311.195 78.1642 311.807 78.2937 312.126 78.0778C314.861 76.2112 317.634 74.407 320.24 72.2717C322.961 70.0405 324.044 66.4369 324.422 62.507C322.869 62.0656 321.337 61.7969 319.892 61.1923C311.818 57.8286 308.118 49.0188 310.265 38.3376C312.029 29.5518 316.874 25.1661 323.391 23.5106C328.722 22.1575 333.574 24.0241 337.812 28.2994C344.025 34.5613 347.109 43.0208 347.798 53.0495C348.062 56.8882 347.965 60.7077 347.309 64.4936C345.726 73.6105 341.578 80.0163 335.065 83.8838C329.056 87.4538 322.713 88.2647 316.196 87.4538C315.291 87.3435 314.361 87.2859 313.501 86.95C312.289 86.4797 311.314 86.8828 310.276 87.6793C304.915 91.7964 299.599 95.9949 294.821 101.235C291.299 105.097 288.449 109.618 286.632 115.15C285.223 119.449 284.538 123.893 285.331 128.547C286.087 132.986 287.815 136.637 290.803 139.132C293.698 141.546 296.741 143.561 300.37 144.631C300.597 142.952 300.815 141.354 301.023 139.751C301.134 138.892 301.16 138.005 301.349 137.179C301.835 135.039 303.292 133.816 304.878 134.132C306.402 134.435 307.507 136.138 307.562 138.283C307.566 138.456 307.581 138.638 307.555 138.806C306.598 145.864 305.008 152.549 300.849 157.702C298.602 160.485 295.952 162.4 292.912 163.124C287.948 164.309 282.958 165.317 277.965 166.286C273.565 167.14 269.176 167.995 264.924 169.78C261.146 171.363 258.603 174.607 257.461 179.458C257.005 181.401 257.046 183.565 257.002 185.633C256.972 187.111 256.727 187.687 255.556 187.759C253.903 187.86 252.728 186.732 251.864 185.058C250.455 182.332 249.754 179.319 250.025 176.013C250.611 168.801 253.447 163.546 258.41 160.274C262.636 157.486 267.189 155.999 271.889 155.576C277.832 155.044 283.796 154.871 289.746 154.468C291.184 154.372 292.641 154.142 294.039 153.691C296.793 152.808 298.55 150.433 299.573 147.174ZM320.744 80.2131C325.608 80.3762 330.249 79.4837 334.371 75.9761C337.174 73.5913 339.098 70.3428 340.11 66.1826C341.066 62.2431 341.215 58.2365 340.885 54.1627C340.303 46.9555 338.308 40.6696 333.927 35.8953C330.094 31.7207 325.263 31.2168 320.971 34.5229C318.939 36.0872 317.638 38.3328 317.245 41.3366C316.303 48.5678 319.254 53.8124 324.552 57.0657C324.552 56.5571 324.555 56.0916 324.552 55.631C324.54 54.3258 324.463 53.0111 324.533 51.7155C324.6 50.4103 325.096 49.3979 326.134 48.9948C327.061 48.6349 328.099 49.0668 328.677 50.2712C329.093 51.1397 329.504 52.1474 329.578 53.1358C329.804 56.1588 330.105 59.2202 329.945 62.2287C329.575 69.2968 327.161 74.9684 322.42 78.788C321.853 79.2438 321.304 79.738 320.744 80.2131Z" fill="#212121"/>
<path d="M188.824 300.771C189.458 300.828 189.951 300.91 190.444 300.915C197.38 301.02 204.32 301.107 211.256 301.217C212.705 301.241 214.155 301.27 215.597 301.442C216.542 301.558 217.009 301.222 217.395 300.022C218.106 297.82 218.948 295.67 219.897 293.621C220.401 292.532 221.157 291.563 221.95 290.795C223.152 289.638 224.527 289.495 225.824 290.608C227.118 291.716 227.363 293.391 227.074 295.229C226.94 296.078 226.673 296.889 226.488 297.729C225.598 301.702 224.649 305.655 223.845 309.657C223.177 312.963 224.03 315.684 225.969 317.992C229.038 321.644 232.649 322.431 236.597 321.644C243.032 320.358 248.107 314.019 249.004 306.087C249.149 304.811 249.182 303.453 249.012 302.191C247.625 292.014 242.91 285.421 235.544 281.951C231.37 279.984 227.014 279.37 222.607 280.387C221.202 280.713 219.8 281.328 218.495 282.091C216.268 283.391 214.833 285.569 214.629 288.89C214.599 289.379 214.358 290.133 214.088 290.238C213.788 290.358 213.265 289.998 212.972 289.658C209.739 285.901 209.339 280.205 212.127 275.824C214.892 271.477 218.525 268.967 222.836 268.147C236.356 265.57 252.141 277.604 255.596 296.942C258.153 311.274 251.792 325.439 240.593 329.978C235.815 331.917 230.992 332.147 226.18 330.113C223.17 328.841 220.605 326.653 218.436 323.683C215.938 320.262 214.866 316.164 215.066 311.485C215.085 311.02 215.104 310.555 215.129 309.912C214.636 309.912 214.244 309.888 213.851 309.916C206.659 310.473 199.467 311.068 192.272 311.572C189.821 311.745 187.356 311.735 184.902 311.706C183.968 311.697 183.012 311.514 182.111 311.207C178.319 309.916 176.988 305.593 179.004 301.27C180.016 299.106 181.021 296.942 182.04 294.782C187.538 283.117 192.461 271.069 196.576 258.478C197.009 257.153 197.499 255.863 197.988 254.572C199.171 251.443 201.132 249.735 203.812 249.937C207.1 250.181 210.384 250.652 213.658 251.16C222.851 252.595 232.022 254.294 241.231 255.503C245.568 256.074 249.976 255.757 254.35 255.834C255.762 255.858 257.186 255.743 258.587 255.911C260.57 256.146 261.701 257.58 261.694 259.557C261.686 261.558 260.548 262.792 258.532 263.103C251.748 264.164 244.938 264.058 238.15 263.425C228.645 262.537 219.155 261.366 209.658 260.344C208.42 260.21 207.167 260.162 205.925 260.239C205.528 260.263 204.939 260.704 204.798 261.146C200.516 274.562 195.037 287.167 189.28 299.585C189.125 299.917 189.013 300.267 188.824 300.771Z" fill="#212121"/>
<path d="M231.834 -2.54429C232.272 0.118812 232.768 2.38365 232.995 4.68687C233.547 10.3681 232.872 15.9918 232.279 21.6059C230.915 34.552 228.272 47.1237 225.632 59.7003C224.131 66.8642 222.952 74.1386 223.138 81.6096C223.212 84.5846 223.556 87.6172 224.157 90.4866C225.165 95.2898 227.627 98.4039 231.427 99.7235C234.904 100.933 238.385 101.221 241.929 100.4C248.331 98.9222 254.225 95.88 259.478 90.8801C263.822 86.7487 266.977 81.4609 268.174 74.5656C268.534 72.4975 268.501 70.2087 268.249 68.0974C267.663 63.1743 265.45 59.9306 261.687 58.5247C257.587 56.994 253.506 56.9652 249.454 58.7166C245.676 60.348 242.418 63.1167 239.664 66.8018C237.691 69.4458 236.079 72.5551 236.846 76.4034C237.969 82.0175 240.008 86.9598 244.301 89.7093C244.672 89.9444 244.92 90.4914 245.228 90.8945C244.872 91.1728 244.542 91.5759 244.153 91.7054C240.353 92.9962 237.017 91.811 234.173 88.3609C232.216 85.9858 230.618 83.2315 229.432 80.1125C227.564 75.1894 227.445 70.1703 229.362 65.2568C230.174 63.1791 231.134 61.0486 232.409 59.4555C240.394 49.5037 249.784 45.5498 260.76 48.8415C260.957 48.8991 261.15 48.9855 261.342 49.0623C268.304 51.6438 272.408 57.5554 273.813 66.7443C274.688 72.4783 274.106 77.9389 272.26 83.1979C270.769 87.4397 268.805 91.312 266.187 94.5221C258.495 103.96 249.346 109.056 238.729 109.546C235.882 109.675 233.095 108.975 230.381 107.857C223.06 104.829 219.216 97.9673 217.811 88.5289C216.747 81.3649 217.458 74.2585 218.745 67.2721C220.376 58.4143 222.292 49.6476 223.931 40.7946C225.803 30.6941 227.226 20.4831 227.223 10.0467C227.223 7.67626 226.841 5.29146 226.515 2.94506C226.248 1.01611 225.236 -0.0443287 223.734 -0.327433C222.867 -0.490578 221.996 -0.629734 221.147 -0.893645C219.505 -1.40227 218.352 -2.65465 218.052 -4.88109C217.755 -7.09315 218.43 -8.91653 219.883 -10.001C220.999 -10.8311 222.266 -11.5077 223.531 -11.8052C231.705 -13.7245 239.764 -13.1775 247.623 -9.50193C251.326 -7.76972 254.514 -4.97227 257.335 -1.45026C261.313 3.52086 262.721 9.84992 263.036 16.7452C263.04 16.7884 263.04 16.8316 263.036 16.8747C262.933 17.8536 263.011 19.1876 262.113 19.3507C261.624 19.4419 260.901 18.5878 260.486 17.94C259.696 16.702 259.018 15.3345 258.354 13.9717C253.821 4.66767 247.096 -0.154692 238.889 -1.81973C236.594 -2.27078 234.225 -2.30437 231.834 -2.54429Z" fill="#212121"/>
<path d="M112.897 211.458C110.465 213.416 107.94 215.421 105.453 217.494C105.256 217.658 105.13 218.387 105.245 218.675C106.057 220.719 106.795 222.845 107.829 224.687C109.252 227.221 110.939 229.5 112.463 231.942C112.982 232.777 113.46 233.722 113.757 234.716C114.242 236.362 113.96 237.926 112.934 239.13C111.933 240.306 110.787 240.344 109.534 239.768C109.008 239.524 108.329 239.423 107.803 239.629C104.292 240.997 100.786 242.393 97.3195 243.938C96.1295 244.471 95.0582 245.459 93.9424 246.261C93.5012 246.577 93.1009 246.995 92.656 247.287C91.5588 248.017 90.4466 248.07 89.405 247.124C88.3892 246.203 88.0815 244.874 88.2261 243.334C88.3855 241.649 88.6487 239.965 88.6895 238.276C88.8007 233.531 88.8118 228.78 88.8748 224.03C88.8897 222.998 88.9675 221.971 89.0268 220.671C87.1474 221.371 85.3902 221.928 83.685 222.691C79.6777 224.486 75.7074 226.415 71.7038 228.224C70.3396 228.843 68.9384 229.346 67.5297 229.769C65.0126 230.527 62.5734 228.166 62.173 224.668C61.9061 222.355 62.4251 220.263 63.3185 218.301C64.8087 215.038 66.6956 212.183 68.9569 209.812C72.6491 205.949 76.3339 202.053 80.2078 198.517C84.141 194.928 88.2632 191.689 92.378 188.445C94.1537 187.044 96.0813 185.955 97.9831 184.851C100.804 183.21 103.406 181.18 105.642 178.388C106.602 177.188 107.569 176.991 108.474 177.701C109.379 178.412 109.809 179.875 109.26 181.387C108.726 182.86 108.074 184.405 107.165 185.475C105.482 187.461 103.599 189.165 101.757 190.907C99.3398 193.195 96.8672 195.383 94.4502 197.663C92.2705 199.716 90.0945 201.77 87.9814 203.934C83.7035 208.31 79.4664 212.754 75.2329 217.202C74.6695 217.792 74.2209 218.56 73.561 219.467C74.2431 219.347 74.7584 219.308 75.2515 219.159C79.7741 217.806 84.2929 216.42 88.8155 215.076C89.4865 214.874 89.746 214.399 89.8164 213.555C89.9314 212.168 90.0871 210.786 90.2724 209.414C90.5838 207.092 91.822 205.666 93.3196 205.839C94.8469 206.017 95.9961 207.639 95.8812 209.985C95.7403 212.936 95.4511 215.887 95.0285 218.795C94.061 225.431 94.087 232.149 93.8312 238.847C93.8275 238.919 93.8831 239.001 93.9201 239.092C98.0646 238.075 102.209 237.053 106.55 235.987C106.135 235.282 105.898 234.869 105.657 234.461C103.069 230.076 100.752 225.488 99.5437 220.124C99.3547 219.289 99.2027 218.435 99.1174 217.576C98.869 214.966 99.5956 213.406 101.353 212.135C104.819 209.62 108.237 207 111.688 204.457C112.263 204.03 112.466 203.536 112.396 202.663C112.289 201.367 112.255 200.052 112.296 198.747C112.344 197.178 112.993 196.118 113.953 195.796C114.954 195.465 116.01 195.998 116.552 197.442C117.119 198.958 117.682 200.566 117.875 202.212C118.883 210.657 121.245 218.617 122.983 226.798C125.423 238.291 125.704 249.658 122.487 260.972C122.068 262.441 121.571 263.88 121.011 265.267C117.693 273.491 112.415 277.772 105.286 278.559C100.237 279.115 95.2695 278.419 90.2835 277.642C86.8397 277.105 83.3921 276.577 79.9335 276.27C77.9279 276.092 75.8965 276.251 73.8873 276.452C70.8734 276.75 68.5528 278.65 66.9032 281.941C65.8282 284.086 64.9496 286.327 64.6938 288.894C64.5047 290.818 65.046 291.476 66.5214 291.25C66.9329 291.188 67.3555 291.269 67.7744 291.284C67.7076 291.864 67.7299 292.493 67.563 293.021C66.8216 295.382 65.0682 296.586 62.9626 296.255C60.427 295.857 58.5327 293.621 57.9507 290.305C57.4502 287.474 57.7913 284.739 58.6699 282.128C61.5725 273.52 66.6103 268.789 73.8947 268.012C78.395 267.532 82.8435 268.175 87.3031 268.693C91.5958 269.192 95.8812 269.931 100.181 270.142C102.776 270.267 105.405 269.686 107.999 269.24C109.842 268.923 111.454 267.772 112.793 266.088C118.338 259.125 121.274 250.766 120.57 240.647C120.396 238.118 119.877 235.565 119.213 233.166C117.2 225.94 115.047 218.804 112.897 211.458Z" fill="#212121"/>
<path d="M-7.92408 282.373C-3.27173 287.546 2.35184 290.934 6.42218 297.066C6.91892 296.543 7.40455 296.097 7.83827 295.574C10.3517 292.546 12.8428 289.494 15.3599 286.476C15.8789 285.852 15.8529 285.348 15.523 284.561C14.0402 280.996 12.5981 277.397 11.1969 273.775C10.8262 272.815 10.5407 271.75 10.4073 270.694C10.1552 268.736 10.6593 267.052 11.9531 265.91C13.2431 264.773 14.6852 264.696 15.953 265.78C16.9391 266.625 17.8992 267.733 18.5442 269C20.2791 272.417 21.8472 275.977 23.4635 279.499C24.0937 280.876 24.672 282.297 25.3948 283.976C28.2975 281.212 31.074 278.573 33.921 275.862C33.6059 275.267 33.3983 274.83 33.1574 274.427C31.4225 271.534 29.6505 268.679 27.9564 265.752C27.2335 264.504 26.544 263.18 26.0584 261.759C25.2243 259.317 25.8026 256.721 27.3114 255.31C28.8201 253.9 30.8516 254.072 32.416 255.891C33.213 256.817 33.9915 257.839 34.5698 258.996C36.7421 263.348 38.933 267.69 40.9199 272.186C42.4769 275.708 41.7095 279.619 39.2629 282.114C36.0637 285.382 32.8608 288.645 29.6431 291.879C25.7804 295.756 23.1892 295.665 19.4524 291.586C19.3264 291.447 19.1893 291.332 18.9891 291.145C18.5591 291.658 18.1364 292.148 17.725 292.651C14.8298 296.212 11.4823 298.966 8.20528 301.883C5.4806 304.307 3.30086 303.256 0.972832 301.38C-1.42563 299.451 -3.81296 297.493 -6.19659 295.535C-8.52832 293.625 -10.8712 291.735 -13.177 289.772C-17.1287 286.409 -16.4873 281.011 -14.6561 277.373C-14.0185 276.107 -13.2029 274.96 -12.3614 273.904C-6.33746 266.356 -0.409901 258.664 5.7994 251.376C10.1552 246.261 14.8112 241.558 19.5006 236.947C27.4411 229.135 34.9405 220.777 40.983 210.407C41.7503 209.088 42.6141 207.854 43.4889 206.65C43.9226 206.06 44.4453 205.527 45.0014 205.153C46.2062 204.342 47.4295 204.414 48.5083 205.546C49.587 206.674 49.8947 208.205 49.5351 209.903C49.3683 210.69 49.0828 211.458 48.7455 212.149C45.9689 217.854 42.8142 223.161 38.8032 227.533C33.9099 232.868 29.0871 238.319 24.0863 243.478C17.5878 250.176 11.7937 257.854 5.73639 265.157C1.3769 270.416 -2.83801 275.871 -7.11594 281.246C-7.38285 281.577 -7.61639 281.937 -7.92408 282.373Z" fill="#212121"/>
<path d="M78.0586 94.4643C78.3181 82.4731 79.7898 71.4369 83.3597 61.0052C86.8814 50.7079 92.568 43.0881 100.612 38.5584C105.209 35.9721 109.854 33.7744 115.018 34.1679C125.138 34.9404 132.415 47.4354 130.15 60.2759C129.498 63.9754 127.922 66.9888 125.917 69.6375C121.572 75.3716 117.046 80.8369 111.967 85.4961C108.642 88.5479 105.402 91.7436 102.099 94.8338C101.446 95.4432 101.32 95.9758 101.773 96.8587C103.259 99.7617 104.668 102.737 106.188 105.611C107.24 107.602 108.642 109.071 110.529 109.613C110.821 109.694 111.114 109.843 111.374 110.04C111.867 110.414 112.642 110.736 112.753 111.268C113.075 112.828 113.331 114.541 112.019 115.721C111.852 115.87 111.711 116.062 111.537 116.196C105.68 120.659 100.901 126.858 95.8227 132.573C94.8812 133.629 93.9618 134.727 92.9609 135.678C91.0221 137.515 89.7098 137.266 88.1751 134.905C88.0454 134.708 87.9045 134.507 87.7414 134.363C86.0695 132.928 85.0056 130.841 84.3087 128.509C81.7397 119.924 79.3079 111.278 78.5034 102.051C78.2588 99.3202 78.1772 96.5708 78.0586 94.4643ZM104.631 111.671C104.46 111.465 104.375 111.335 104.275 111.239C100.601 107.823 98.0025 103.236 95.971 98.1111C94.2139 93.6774 93.8061 88.8934 94.4771 83.9846C94.6587 82.6507 95.1629 81.5231 96.1045 80.8225C96.9942 80.1555 98.0099 80.3091 98.8255 81.1968C99.8783 82.3388 99.9932 82.9914 99.5372 84.6516C99.4408 85.0019 99.5224 85.4386 99.5224 85.6401C102.395 83.3417 105.157 80.9185 108.067 78.8504C113.361 75.0932 118.091 70.362 122.636 65.2854C123.448 64.3785 124.174 63.3276 124.853 62.2528C125.879 60.6213 126.421 58.726 126.495 56.6003C126.847 46.8644 120.148 39.259 112.582 41.495C102.547 44.4556 94.7329 51.6292 90.3623 64.0378C85.7581 77.099 83.9676 90.8655 85.6321 105.097C86.455 112.137 88.0454 119.027 89.2946 125.985C89.3206 126.129 89.4207 126.254 89.5282 126.474C93.3613 119.483 98.6587 115.141 104.631 111.671Z" fill="#212121"/>
<path d="M302.584 -82.9315C304.452 -82.9315 306.257 -82.9315 308.296 -82.9315C308.081 -80.7531 308 -78.6226 307.644 -76.5785C305.95 -66.8714 302.995 -57.8264 298.688 -49.5828C295.859 -44.1702 292.838 -38.9208 289.843 -33.6618C285.787 -26.5458 282.221 -19.0747 279.596 -10.8935C278.914 -8.7726 278.34 -6.55575 277.965 -4.31011C277.272 -0.130722 278.555 2.27326 281.758 3.23773C284.06 3.9287 286.369 3.90951 288.679 3.3289C296.723 1.30399 302.65 -4.52604 306.691 -13.643C307.21 -14.8186 307.529 -16.2341 307.67 -17.5872C307.922 -19.9864 306.869 -21.709 305.049 -22.2608C303.551 -22.7167 302.094 -22.4528 300.689 -21.7234C298.094 -20.3799 296.159 -18.0287 294.654 -15.0201C294.28 -14.2715 294.328 -13.6094 294.799 -13.024C295.281 -12.4242 295.807 -11.882 296.322 -11.3253C296.701 -10.9175 297.09 -10.5288 297.549 -10.0538C297.279 -9.73708 297.142 -9.45397 296.949 -9.36761C294.58 -8.30237 292.222 -7.99046 290.202 -10.3753C288.249 -12.6833 288.008 -15.6919 288.912 -18.6861C291.14 -26.0468 295.299 -30.5284 301.386 -31.7088C302.791 -31.9824 304.3 -31.9056 305.701 -31.5793C311.966 -30.111 315.699 -22.4576 314.335 -14.0844C313.812 -10.8743 312.685 -8.01447 311.228 -5.35616C306.05 4.12064 298.81 9.52361 290.261 12.2539C287.155 13.2471 284.011 13.2951 280.838 12.5466C272.386 10.5505 269.977 1.24161 271.3 -5.97515C271.971 -9.64111 272.972 -13.2495 274.128 -16.7091C276.809 -24.708 280.46 -31.9728 284.593 -38.8488C287.615 -43.8679 290.61 -48.9206 293.49 -54.0741C297.394 -61.0605 300.185 -68.7715 301.928 -77.1015C302.12 -78.0228 302.232 -78.9777 302.339 -79.9229C302.45 -80.873 302.498 -81.8279 302.584 -82.9315Z" fill="#212121"/>
<path d="M186.903 8.21342C185.416 8.47253 184.063 8.72685 182.706 8.94278C178.829 9.55697 174.958 10.2048 171.073 10.7278C170.124 10.8573 169.105 10.7326 168.186 10.4015C166.102 9.65294 165.105 7.12419 165.75 4.4419C165.939 3.65977 166.243 2.91602 166.555 2.19626C171.151 -8.40335 175.778 -18.9838 180.345 -29.6074C181.587 -32.4912 183.425 -34.0411 185.902 -34.3674C189.72 -34.8712 193.553 -35.2119 197.36 -35.8117C205.215 -37.0449 213.056 -38.4124 220.904 -39.7032C221.634 -39.8231 222.383 -39.8855 223.12 -39.8471C224.707 -39.7607 225.915 -38.4076 226.108 -36.5938C226.312 -34.6889 225.448 -32.9087 223.821 -32.4192C221.727 -31.7906 219.591 -31.3732 217.463 -30.9413C207.918 -29.0124 198.368 -27.093 188.815 -25.2217C187.637 -24.9913 186.969 -24.2668 186.365 -22.9328C183.192 -15.9464 179.918 -9.03674 176.69 -2.09349C176.074 -0.769135 175.489 0.584011 174.769 2.19147C176.452 1.99473 177.88 1.83158 179.307 1.66364C182.057 1.34215 184.804 0.987072 187.555 0.713566C188.185 0.651184 188.411 0.339294 188.545 -0.41885C188.912 -2.54453 189.331 -4.65582 189.757 -6.76231C189.883 -7.39089 190.042 -8.02428 190.276 -8.59529C190.932 -10.2075 192.189 -10.9801 193.479 -10.6394C194.817 -10.2843 195.803 -8.90238 195.825 -7.03582C195.84 -5.74505 195.71 -4.4207 195.488 -3.15873C193.694 7.1242 191.863 17.3975 190.05 27.6756C189.616 30.1372 189.212 32.6036 188.76 35.2907C189.231 35.2475 189.579 35.2427 189.924 35.1851C195.028 34.3022 200.152 33.5584 205.123 31.6967C205.783 31.452 206.528 31.4424 207.217 31.5335C208.307 31.6775 209.093 32.4884 209.43 33.8703C209.779 35.3051 209.501 36.6486 208.607 37.5219C207.847 38.2609 206.935 38.8894 206.02 39.1773C201.412 40.636 196.778 41.9604 192.152 43.3423C190.25 43.9085 188.367 44.6187 186.443 45.0266C185.449 45.2377 184.326 45.1945 183.373 44.8107C181.739 44.1533 180.867 42.4258 180.86 40.2282C180.856 38.7263 181.057 37.186 181.346 35.7225C183.058 27.1142 184.823 18.5251 186.569 9.93124C186.673 9.43221 186.762 8.93318 186.903 8.21342Z" fill="#212121"/>
<path d="M60.2979 -58.7042C56.6946 -51.3387 51.4047 -47.4808 45.1249 -45.4943C44.5021 -45.2975 43.8979 -45.024 43.2751 -44.8417C36.6172 -42.9128 31.6387 -37.7833 27.624 -30.9264C25.485 -27.2748 24.3581 -23.1099 24.7436 -18.4554C24.8251 -17.4622 25.1514 -16.4353 25.5591 -15.5812C25.9966 -14.6647 25.8446 -14.1945 25.2218 -13.6714C22.7677 -11.6033 19.3943 -13.0285 18.1413 -16.704C17.3851 -18.9113 17.3999 -21.2097 17.8003 -23.5033C18.8271 -29.3957 20.8883 -34.5444 24.4248 -38.599C25.3812 -39.6978 26.3487 -40.7871 27.2866 -41.9147C30.5896 -45.8829 34.4412 -48.5365 38.7748 -50.0815C41.0768 -50.9069 43.3789 -51.7514 45.6624 -52.6679C48.7949 -53.9298 51.5715 -56.0315 54.007 -58.8722C55.2266 -60.2925 56.1756 -61.9191 56.6242 -64.0448C56.791 -64.8509 57.3878 -65.5035 57.7919 -66.2233C58.0106 -66.6071 58.3405 -66.9478 58.4406 -67.3749C58.993 -69.7501 60.9095 -70.6186 62.3182 -68.896C63.0707 -67.9795 63.6416 -66.6935 64.042 -65.4363C65.0837 -62.1686 65.3617 -58.6802 65.3691 -55.1822C65.3987 -42.4809 62.9521 -30.6913 57.4249 -20.0917C53.6956 -12.9373 50.0108 -5.74453 46.1406 1.2755C44.2315 4.73992 42.011 7.93565 39.8164 11.1122C36.3985 16.0641 33.0474 21.0544 30.6044 26.9516C28.762 31.4045 27.3237 36.0685 26.649 41.0252C26.2968 43.602 26.3784 46.3035 26.4599 48.9378C26.4933 49.9934 27.0012 51.0586 27.3904 52.0567C27.7871 53.074 28.3876 53.6834 29.3626 53.1124C29.5516 53.002 29.8964 53.1028 30.0743 53.2755C30.1707 53.3667 30.1077 53.8369 30.0372 54.096C29.4552 56.1545 27.8538 57.4069 26.2449 56.716C25.1662 56.2553 24.0615 55.4684 23.2496 54.4463C19.728 50.003 18.8902 44.4657 19.8429 38.4197C21.2886 29.2404 24.599 21.2175 29.2699 14.1447C31.3458 11.0018 33.596 8.04121 35.8499 5.1094C38.5449 1.60178 40.9211 -2.20813 43.0935 -6.27715C45.6958 -11.1523 48.3315 -16.0131 51.1674 -20.6531C57.7066 -31.3535 60.461 -43.5845 60.3683 -57.0584C60.3572 -57.6006 60.3201 -58.1524 60.2979 -58.7042Z" fill="#212121"/>
<path d="M75.992 -16.7188C75.84 -22.2465 75.7436 -27.779 75.5249 -33.302C75.2728 -39.7798 76.3701 -41.8671 81.0188 -44.2519C89.3114 -48.508 97.5633 -52.9033 105.823 -57.2699C107.769 -58.2967 108.911 -57.7449 109.759 -55.2497C109.856 -54.9666 110.075 -54.6691 110.29 -54.554C112.239 -53.5367 113.118 -51.4878 113.337 -48.9783C113.596 -45.9937 113.574 -42.9659 113.867 -39.9861C114.453 -34.0217 115.175 -28.0813 115.835 -22.1313C116.395 -17.0835 115.383 -14.406 111.643 -12.8273C103.891 -9.55959 96.5772 -5.05871 89.3337 -0.313118C87.2614 1.04482 85.1336 2.26361 82.9983 3.44881C82.1457 3.92385 81.2189 4.3317 80.3033 4.44207C78.1347 4.70598 76.2737 2.95457 75.7696 0.109135C75.5101 -1.35437 75.4767 -2.91384 75.5027 -4.43013C75.5731 -8.52794 75.7325 -12.621 75.8586 -16.714C75.903 -16.714 75.9475 -16.7188 75.992 -16.7188ZM104.881 -49.5445C104.584 -49.4101 104.329 -49.3333 104.099 -49.1894C97.2853 -44.8181 90.4754 -40.4371 83.6582 -36.0754C83.1466 -35.7491 82.9909 -35.3461 83.091 -34.6311C83.2467 -33.5179 83.4172 -32.3903 83.4283 -31.2627C83.521 -23.686 83.5692 -16.1142 83.6359 -8.53753C83.6396 -8.01931 83.6359 -7.50589 83.6359 -6.81972C84.0474 -6.97807 84.3662 -7.06444 84.6665 -7.22278C87.1613 -8.53274 89.7044 -9.70834 92.1288 -11.2054C96.8478 -14.1181 101.686 -16.5892 106.646 -18.7245C110.178 -20.2456 109.834 -19.3483 108.907 -24.0507C107.261 -32.4383 105.185 -40.6963 104.881 -49.5445Z" fill="#212121"/>
<path d="M71.5656 190.005C69.5304 189.305 67.447 188.772 65.4675 187.86C62.0236 186.277 58.8801 183.892 55.8959 181.176C46.4652 172.587 38.6692 161.978 32.5786 149.305C30.4507 144.881 28.7121 140.212 28.1486 134.963C28.056 134.104 28.0226 133.226 28.0486 132.357C28.1857 127.406 30.6843 123.999 34.5174 124.023C36.3931 124.037 38.3393 124.574 40.1261 125.352C43.7256 126.916 46.9582 129.426 49.9164 132.54C50.7171 133.384 51.7255 133.893 52.5336 134.718C61.3564 143.72 69.03 154.089 75.0094 166.459C76.6405 169.833 78.0455 173.364 78.6349 177.318C78.8128 178.508 78.9241 179.741 78.8907 180.951C78.7498 186.334 75.9325 189.674 71.636 189.645C71.6175 189.77 71.5915 189.89 71.5656 190.005ZM72.5813 179.823C72.3292 178.561 72.2254 177.208 71.7991 176.056C70.4757 172.491 69.2413 168.825 67.5953 165.519C62.2461 154.795 55.0396 146.302 47.2696 138.662C44.6302 136.067 41.368 134.521 38.3467 132.612C37.5201 132.089 36.5488 131.887 35.622 131.705C34.2319 131.436 33.8723 131.902 34.1392 133.711C34.332 135.025 34.5841 136.398 35.0734 137.554C36.4784 140.875 37.8277 144.272 39.5367 147.324C45.5273 158.053 52.8376 167.102 61.2044 174.684C63.3174 176.598 65.6195 178.196 67.9216 179.727C69.004 180.447 70.2755 180.715 71.484 181.085C72.1809 181.306 72.5776 180.855 72.5813 179.823Z" fill="#212121"/>
<path d="M286.5 236.031C287.605 238.339 288.928 240.167 290.526 241.659C296.428 247.163 302.978 248.737 310.01 246.741C315.63 245.143 321.009 242.581 325.932 238.67C327.756 237.221 329.454 235.46 331.085 233.651C333.635 230.815 334.84 227.029 335.229 222.773C335.255 222.48 335.233 222.178 335.233 221.669C334.851 222 334.559 222.259 334.262 222.509C330.103 226.06 325.992 229.711 321.766 233.118C320.042 234.51 318.096 235.474 316.194 236.448C314.919 237.101 313.799 236.539 313.269 235.335C312.735 234.126 312.92 232.557 313.91 231.434C314.844 230.378 315.868 229.433 316.92 228.589C318.466 227.355 320.064 226.223 321.665 225.11C326.381 221.832 330.625 217.706 334.644 213.157C334.87 212.898 335.1 212.639 335.348 212.413C337.598 210.364 340.579 211.909 340.705 215.441C341.031 224.472 339.934 233.152 334.425 239.495C325.728 249.514 315.619 255.551 303.768 255.536C297.773 255.527 292.217 253.247 287.286 248.694C284.732 246.338 282.767 243.377 281.596 239.567C280.799 236.967 280.858 234.375 281.488 231.765C281.778 230.565 282.538 230.009 283.401 229.635C284.999 228.944 286.6 228.272 288.187 227.547C296.598 223.699 304.183 217.984 311.015 210.575C311.686 209.846 312.346 209.098 313.047 208.421C314.047 207.456 315.011 207.375 315.86 208.104C316.691 208.814 317.095 210.249 316.779 211.708C316.598 212.538 316.357 213.387 315.986 214.093C315.401 215.201 314.785 216.343 314.007 217.207C306.863 225.081 299.06 231.487 289.974 234.956C288.869 235.359 287.746 235.642 286.5 236.031Z" fill="#212121"/>
<path d="M-19.1651 128.994C-15.3469 128.235 -11.5879 127.789 -8.07366 125.851C-7.89202 125.75 -7.73261 125.577 -7.5695 125.419C-5.94952 123.85 -4.46671 124.037 -3.34347 126.225C-2.34257 128.178 -1.55667 130.318 -0.644741 132.348C-0.129461 133.494 0.452549 134.588 1.17171 136.047C1.36819 134.968 1.46828 134.301 1.61285 133.648C3.22171 126.412 5.6869 119.737 9.35317 113.84C10.4838 112.026 11.9221 111.609 13.5977 111.916C15.5958 112.281 17.5902 112.717 19.5994 112.953C20.7375 113.082 21.8978 112.871 23.047 112.813C23.0581 112.689 23.0692 112.564 23.0804 112.439C22.9395 112.271 22.806 112.098 22.6577 111.94C13.9833 102.578 8.50425 90.7457 6.3208 76.3985C6.07242 74.7575 6.15769 73.0205 6.17623 71.3315C6.18364 70.7029 6.38012 70.0503 6.584 69.4649C7.18825 67.7279 8.38562 66.8114 9.62749 67.0657C10.8582 67.3152 11.5107 68.5388 11.8295 70.5205C12.4448 74.3496 13.0528 78.1979 13.9388 81.9263C14.4541 84.0951 15.3215 86.2208 16.3484 88.0682C19.3251 93.4136 22.6207 98.4279 26.4649 102.794C28.8115 105.458 31.3767 107.67 34.2349 109.311C34.7872 109.627 35.3396 109.973 35.8289 110.424C36.8446 111.36 37.3451 112.665 37.0782 114.282C36.815 115.904 35.9586 116.863 34.7168 117.122C32.4592 117.593 30.183 117.933 27.9255 118.408C26.7318 118.663 25.553 119.047 24.3778 119.44C21.1119 120.544 17.872 119.8 14.6542 119.123C13.4013 118.859 12.6524 119.267 11.9889 120.611C9.11591 126.431 6.82495 132.544 6.07984 139.473C6.0576 139.689 6.03536 139.905 6.002 140.121C5.43111 143.964 3.82225 144.886 1.01972 143.384C-1.32313 142.132 -2.96535 140.035 -4.23686 137.348C-5.05983 135.601 -5.80124 133.787 -6.55006 131.988C-6.80585 131.374 -7.01345 131.124 -7.63623 131.359C-11.5472 132.818 -15.4581 134.286 -19.4061 135.558C-22.368 136.513 -24.1919 134.91 -24.6961 130.999C-25.1224 127.693 -25.33 124.339 -25.7155 121.023C-25.8897 119.526 -26.2048 118.044 -26.5644 116.599C-27.3725 113.356 -25.9231 110.803 -23.3096 110.774C-21.1669 110.75 -19.028 110.472 -16.889 110.376C-16.1624 110.342 -15.3654 110.309 -14.7167 110.645C-14.2496 110.889 -13.7566 111.705 -13.6787 112.343C-13.612 112.905 -13.9901 113.883 -14.3831 114.147C-15.8622 115.141 -17.4117 115.966 -18.965 116.743C-19.6804 117.103 -19.9103 117.535 -19.825 118.562C-19.5803 121.508 -19.4432 124.469 -19.2652 127.42C-19.2393 127.885 -19.2059 128.351 -19.1651 128.994Z" fill="#212121"/>
<path d="M-23.0529 -9.27662C-23.6905 -10.8361 -24.2317 -12.2324 -24.8248 -13.5904C-25.8368 -15.9032 -26.9527 -18.144 -27.8943 -20.5048C-29.0509 -23.403 -29.5587 -26.4788 -28.8544 -29.7369C-27.8312 -34.4729 -24.6654 -37.9037 -20.5135 -38.2156C-18.2559 -38.3836 -15.965 -37.875 -13.6889 -37.6398C-12.751 -37.5439 -11.8205 -37.2752 -10.8826 -37.2464C-9.45913 -37.2032 -9.13661 -37.6398 -9.25153 -39.5016C-9.41093 -42.0639 -9.74457 -44.6119 -9.84466 -47.1742C-9.91138 -48.8968 -9.8669 -50.6866 -9.57034 -52.3516C-8.56202 -58.0281 -5.18491 -61.3006 -0.699379 -60.84C1.70649 -60.5953 4.08642 -59.9043 6.48117 -59.4101C8.46444 -59.0022 9.1799 -59.5636 9.1799 -62.1835C9.1799 -64.5059 8.78695 -66.8284 8.54599 -69.1508C8.50522 -69.5346 8.34952 -69.8945 8.27909 -70.2736C8.0233 -71.6747 8.33469 -72.9223 9.15025 -73.6468C10.0548 -74.4434 11.0631 -74.4818 11.8935 -73.666C12.5941 -72.9799 13.2688 -72.0538 13.6432 -71.0461C15.1964 -66.8523 15.5894 -62.4426 14.5625 -57.9466C13.5542 -53.5368 10.9445 -51.1473 7.40793 -51.5455C5.03542 -51.8142 2.69257 -52.5436 0.327473 -52.9754C-2.72342 -53.5273 -3.60199 -52.5292 -3.6057 -48.4938C-3.60941 -46.6224 -3.45 -44.751 -3.37215 -42.8797C-3.31655 -41.4881 -3.23129 -40.0918 -3.235 -38.7003C-3.25724 -33.2781 -5.66682 -29.7273 -9.84837 -29.401C-11.8353 -29.2475 -13.8557 -29.7849 -15.8612 -29.996C-17.3292 -30.1544 -18.8231 -30.5766 -20.2615 -30.3703C-22.8527 -30.0008 -23.9796 -27.5728 -23.1863 -24.3531C-22.7674 -22.6593 -22.152 -21.047 -21.57 -19.43C-20.5358 -16.5462 -19.4163 -13.7103 -18.4116 -10.8073C-17.129 -7.10775 -17.6332 -4.18554 -20.0205 -1.56083C-21.0696 -0.409218 -22.2188 0.603241 -23.3754 1.57251C-27.6199 5.1377 -31.6977 8.9908 -35.4715 13.3573C-36.4242 14.461 -37.3398 15.6222 -38.2036 16.8362C-39.59 18.7795 -40.6799 20.9532 -41.121 23.6019C-41.1914 24.0337 -41.5065 24.5759 -41.8031 24.7103C-42.007 24.8015 -42.4555 24.36 -42.6668 24.0193C-44.9578 20.3102 -45.6473 16.174 -44.4722 11.6251C-43.4639 7.73363 -41.6696 4.49952 -39.3305 1.75965C-34.9339 -3.38901 -29.9665 -7.17973 -24.1242 -8.86875C-23.8425 -8.95512 -23.5607 -9.08469 -23.0529 -9.27662Z" fill="#212121"/>
<path d="M148.402 259.615C148.769 259.212 149.08 258.891 149.373 258.545C158.941 247.226 168.513 235.911 178.066 224.568C179.23 223.186 180.231 221.569 181.424 220.235C182.184 219.385 183.111 218.603 184.064 218.263C185.313 217.816 186.455 218.541 187.248 219.913C188.038 221.286 188.182 222.84 187.593 224.352C187.27 225.177 186.766 225.954 186.214 226.554C182.269 230.839 178.251 235.009 174.34 239.342C166.463 248.07 158.637 256.875 150.8 265.671C150.27 266.266 149.788 266.947 149.362 267.672C148.009 269.965 145.273 270.762 144.009 267.979C143.927 267.801 143.783 267.643 143.638 267.552C141.284 266.04 139.95 263.348 138.99 260.392C134.486 246.563 132.736 232.284 135.386 217.471C135.957 214.29 137.051 211.228 138.133 208.253C138.993 205.892 140.28 205.154 141.562 205.677C142.915 206.228 143.49 207.797 143.275 210.427C143.216 211.161 143.127 211.895 143.012 212.62C141.043 225.187 141.744 237.495 145.166 249.524C146.026 252.542 147.004 255.508 147.938 258.492C148.046 258.847 148.213 259.169 148.402 259.615Z" fill="#212121"/>
<path d="M301.302 196.665C301.199 200.873 300.287 204.784 298.463 208.234C294.537 215.647 289.392 220.926 282.46 222.888C282.067 222.999 281.663 223.123 281.266 223.128C280.072 223.142 278.93 223.142 277.748 223.737C276.602 224.313 275.431 223.57 274.667 222.38C273.685 220.849 272.61 219.27 272.046 217.471C269.696 209.961 267.487 202.38 265.311 194.784C264.766 192.884 264.428 190.849 264.236 188.839C264.143 187.87 264.495 186.742 264.851 185.816C265.085 185.211 265.641 184.731 266.134 184.391C271.29 180.85 276.714 178.426 282.623 178.594C287.657 178.743 292.28 180.84 296.428 184.53C299.694 187.433 301.239 191.569 301.302 196.665ZM280.183 216.492C281.655 215.465 283.175 214.443 284.665 213.359C287.408 211.362 289.955 209.026 292.172 206.113C293.97 203.747 295.193 201.003 295.538 197.673C295.883 194.333 295.097 191.646 292.758 189.918C289.57 187.567 286.167 186.113 282.467 186.267C278.938 186.416 275.553 187.582 272.258 189.18C272.206 189.204 272.176 189.309 272.232 189.213C274.882 198.311 277.507 207.308 280.183 216.492Z" fill="#212121"/>
<path d="M160.423 22.8008C162.743 22.6569 165.064 22.4554 167.384 22.3978C168.519 22.369 169.683 22.4554 170.784 22.7673C172.174 23.1655 172.563 24.2404 172.841 26.0062C173.275 28.7844 172.771 31.3755 172.226 33.9811C170.899 40.2861 169.657 46.6296 168.137 52.8579C167.221 56.615 165.931 60.2378 164.638 63.8126C164.3 64.7434 163.388 65.5688 162.599 65.9526C157.127 68.6253 151.107 66.6052 147.248 60.9C144.419 56.7158 143.077 51.7159 142.544 46.2841C141.906 39.8159 142.299 33.5012 144.212 27.4121C144.775 25.6223 145.746 24.7874 147.222 24.034C150.551 22.3258 153.913 22.8392 157.286 22.7577C158.328 22.7289 159.374 22.7529 160.419 22.7529C160.423 22.7625 160.423 22.7817 160.423 22.8008ZM167.032 28.7124C164.823 29.0147 162.691 29.3458 160.556 29.5953C156.875 30.0272 153.186 30.3967 149.505 30.8477C149.268 30.8765 148.927 31.366 148.875 31.7018C148.293 35.6941 147.922 39.7247 148.367 43.7793C148.927 48.8656 150.258 53.4865 153.461 56.8741C154.973 58.472 156.734 59.0766 158.64 58.923C158.958 58.899 159.433 58.4288 159.537 58.0305C162.009 48.5441 164.441 39.0386 166.88 29.533C166.94 29.3026 166.969 29.0579 167.032 28.7124Z" fill="#212121"/>
<path d="M-26.9471 38.7695C-26.9583 35.6026 -26.1835 33.7025 -24.5487 32.5173C-23.6775 31.8839 -22.7174 31.404 -21.7573 31.0394C-16.801 29.1488 -12.0152 26.74 -7.43697 23.6259C-6.15804 22.7574 -4.83092 21.9848 -3.48526 21.3131C-2.78092 20.9628 -1.9839 20.7612 -1.23137 20.7804C0.188425 20.8188 1.30054 22.0376 1.67495 23.7026C2.03824 25.3101 1.61563 27.0519 0.533178 28.1363C0.0846252 28.5826 -0.426947 28.9425 -0.93852 29.2592C-6.45831 32.6948 -11.9744 36.14 -17.5164 39.5181C-18.3468 40.0219 -18.5136 40.5449 -18.369 41.7014C-16.9492 53.0975 -15.6036 64.5032 -14.206 75.9042C-13.9651 77.8811 -13.498 79.8101 -13.283 81.7918C-13.1273 83.2313 -12.9938 84.7764 -13.2385 86.1583C-13.7315 88.9462 -15.9372 89.8627 -17.7722 88.2312C-18.9548 87.1804 -19.5775 85.6353 -19.8556 83.8935C-20.3486 80.8225 -20.6934 77.718 -21.1901 74.647C-22.647 65.6501 -24.1669 56.6723 -25.6311 47.6801C-26.1464 44.4844 -26.5802 41.2647 -26.9471 38.7695Z" fill="#212121"/>
<path d="M48.9821 100.419C45.857 99.7521 41.5902 98.9459 37.3605 97.8951C34.4616 97.1753 31.596 96.1821 28.7453 95.1648C27.826 94.8385 26.9289 94.1907 26.1541 93.4566C24.2338 91.6476 23.9743 88.6246 25.4498 86.2206C25.8056 85.6448 26.2319 85.141 26.6286 84.6084C31.255 78.4041 35.9073 72.2334 40.4892 65.9715C41.7459 64.2537 42.9841 63.198 44.8154 64.3688C45.0341 64.508 45.3418 64.4456 45.605 64.4312C47.4918 64.3209 48.9413 65.5157 49.6271 67.7805C49.7124 68.0636 49.8125 68.3563 49.8384 68.649C50.5279 76.3168 52.7225 83.5096 54.0459 90.9758C54.2869 92.329 54.5056 93.7157 54.5389 95.0976C54.6279 98.5381 52.7855 100.721 48.9821 100.419ZM42.8729 73.6345C39.6144 78.4905 36.4152 83.2553 33.1345 88.1448C37.6385 89.9778 42.1834 90.64 46.9506 91.2637C45.5605 85.2562 44.2333 79.5221 42.8729 73.6345Z" fill="#212121"/>
<path d="M234.073 197.591C234.781 196.814 235.307 196.152 235.897 195.605C237.038 194.534 238.158 193.388 239.396 192.534C241.298 191.219 243.24 191.756 244.523 193.997C245.29 195.341 245.887 196.905 246.354 198.474C247.359 201.847 248.2 205.297 249.168 208.69C251.066 215.355 253.702 221.511 256.897 227.279C257.401 228.19 257.872 229.174 258.195 230.21C258.706 231.842 258.102 233.037 256.745 233.301C255.563 233.531 254.491 233.022 253.657 232.043C252.245 230.378 250.821 228.68 249.62 226.76C245.22 219.74 242.436 211.665 240.649 202.975C240.486 202.178 240.29 201.387 240.104 200.6C240.089 200.532 240.015 200.489 239.845 200.293C239.037 201.439 238.214 202.572 237.42 203.738C236.82 204.621 236.297 205.595 235.667 206.439C233.713 209.04 230.952 209.194 229.057 206.521C227.993 205.019 227.163 203.124 226.551 201.228C224.853 195.964 224.097 190.374 223.489 184.751C223.363 183.585 223.23 182.414 223.2 181.243C223.141 178.94 224.019 177.102 225.484 176.296C227.018 175.451 228.89 175.854 229.977 177.678C230.777 179.021 231.456 180.643 231.767 182.275C232.457 185.907 232.875 189.621 233.417 193.301C233.606 194.659 233.824 196.003 234.073 197.591Z" fill="#212121"/>
<path d="M119.141 1.15984C119.245 -1.78637 120.142 -5.14523 121.521 -8.28336C124.049 -14.0366 127.533 -18.4223 132.223 -21.3158C139.452 -25.783 146.992 -28.8012 154.891 -30.4567C156.567 -30.807 158.198 -31.6275 159.8 -32.4048C161.768 -33.3597 163.088 -35.2119 163.725 -37.8414C163.907 -38.5899 164.107 -39.3337 164.356 -40.0438C164.693 -41.0131 165.212 -41.7425 166.12 -41.6753C167.062 -41.6081 167.696 -40.826 167.799 -39.7463C167.944 -38.2684 168.04 -36.6706 167.766 -35.2502C166.925 -30.9125 164.748 -27.832 161.768 -25.6919C158.602 -23.4222 155.11 -22.4626 151.611 -21.4981C148.389 -20.6104 145.116 -19.8906 141.987 -18.6095C139.411 -17.5538 136.923 -15.9944 134.551 -14.2957C129.71 -10.8265 127.181 -5.16442 126.21 1.72605C125.654 5.66072 126.914 8.27583 130.492 9.38426C130.888 9.50901 131.248 9.80651 131.626 10.0272C131.411 10.5023 131.259 11.0637 130.97 11.4428C129.391 13.4917 127.519 14.2114 125.335 13.4053C121.461 11.9754 119.081 7.54648 119.141 1.15984Z" fill="#212121"/>
<path d="M257.516 132.122C261.112 132.199 264.986 133.475 268.53 136.253C270.431 137.746 272.285 139.334 274.194 140.802C276.04 142.223 277.326 144.343 278.602 146.483C279.11 147.333 278.791 148.043 278.198 148.59C276.885 149.79 275.399 149.996 273.949 149.358C271.469 148.264 269.056 146.915 266.598 145.735C264.871 144.905 263.147 144.008 261.364 143.417C255.014 141.32 245.175 147.625 242.617 155.658C241.642 158.719 241.539 161.531 243.122 164.281C243.8 165.456 243.607 165.922 242.465 166.08C239.652 166.469 237.431 164.698 236.397 161.157C235.292 157.371 235.441 153.547 236.304 149.732C236.997 146.666 238.195 143.945 239.926 141.676C244.615 135.524 250.269 132.218 257.516 132.122Z" fill="#212121"/>
<path d="M179.747 138.801C179.91 131.752 180.04 124.699 180.251 117.65C180.396 112.837 181.671 111.004 185.334 110.232C190.016 109.248 194.709 108.356 199.395 107.41C199.991 107.29 200.581 107.094 201.167 106.892C204.221 105.846 207.368 108.466 206.875 113.365C206.345 118.662 206.19 124.027 205.938 129.368C205.875 130.702 206.075 132.059 206.138 133.403C206.253 135.946 205.508 137.606 203.602 138.192C201.419 138.864 199.161 139.128 196.948 139.665C193.048 140.61 189.159 141.627 185.263 142.616C184.537 142.798 183.818 143.053 183.084 143.139C180.874 143.408 179.477 141.661 179.747 138.801ZM200.459 112.592C198.72 113.144 197.011 113.696 195.302 114.229C192.392 115.136 189.486 116.062 186.565 116.911C185.816 117.132 185.545 117.516 185.527 118.552C185.419 124.123 185.241 129.689 185.089 135.26C185.082 135.586 185.089 135.913 185.089 136.176C190.394 135.188 195.602 134.219 200.737 133.259C200.644 129.747 200.514 126.316 200.47 122.885C200.421 119.464 200.459 116.043 200.459 112.592Z" fill="#212121"/>
<path d="M22.8562 167.572C22.7079 174.223 21.3548 180.273 18.7228 185.792C18.0667 187.169 17.1214 188.373 16.1539 189.419C14.9713 190.695 13.8407 190.475 12.7434 189.098C12.5988 188.915 12.4579 188.714 12.2874 188.589C7.45713 185.177 5.43308 179.491 5.04755 172.793C4.51003 163.465 6.74538 155.101 11.053 147.649C11.9649 146.071 13.5219 145.629 15.1789 146.32C16.7915 146.987 17.974 148.388 18.9119 150.14C21.0694 154.175 22.0703 158.762 22.5819 163.556C22.7265 164.938 22.7746 166.329 22.8562 167.572ZM14.2707 155.183C12.736 161.411 11.3903 167.404 12.3393 173.805C12.6322 175.768 13.1808 177.615 14.1187 179.299C17.3438 173.143 17.4587 160.979 14.2707 155.183Z" fill="#212121"/>
<path d="M62.4477 15.3487C61.6803 13.8372 60.9871 12.5128 60.3272 11.1597C59.8268 10.128 59.293 9.106 58.9037 8.00717C58.1104 5.75673 58.6628 3.39113 60.153 2.2923C61.6506 1.18867 63.5079 1.77408 64.5644 3.86137C66.2956 7.28741 68.0675 10.6943 69.6023 14.2691C71.8561 19.5233 73.9284 24.9118 76.0377 30.2668C76.4306 31.2649 76.7124 32.3589 76.9163 33.453C77.1461 34.6574 76.9867 35.8234 76.1081 36.5863C75.274 37.3109 74.3881 37.1717 73.6466 36.4472C72.7384 35.5643 71.7486 34.6669 71.1259 33.4865C69.3428 30.1133 67.7154 26.6009 66.0435 23.1317C65.5319 22.0664 65.076 20.9532 64.5644 19.792C62.8332 21.0683 61.1761 22.2248 59.5821 23.5203C59.3004 23.7506 59.1595 24.5376 59.1669 25.0606C59.2744 31.8551 59.4635 38.6496 59.5302 45.4441C59.5562 48.136 59.393 50.8471 59.1855 53.5294C59.1002 54.6186 58.7999 55.7606 58.3736 56.7107C57.5358 58.5677 55.7898 58.8939 54.7073 57.2721C54.0252 56.25 53.5841 54.8105 53.3543 53.4622C53.0985 51.9555 53.1912 50.3432 53.1578 48.779C53.0206 42.3348 52.8761 35.8905 52.7686 29.4415C52.7315 27.1815 52.7389 24.9118 52.839 22.6566C52.9391 20.3822 54.003 19.101 55.6563 18.4196C57.8954 17.4888 60.0974 16.4187 62.4477 15.3487Z" fill="#212121"/>
<path d="M-2.5958 59.6956C-2.1213 75.4439 -1.87663 91.2114 0.203019 106.811C0.4032 108.318 0.336473 109.954 0.121464 111.465C-0.130615 113.26 -1.0685 114.503 -2.53278 114.781C-4.04896 115.074 -5.21668 114.176 -5.86171 112.487C-6.37328 111.144 -6.71433 109.647 -6.94046 108.169C-8.64941 97.0318 -9.34633 85.7412 -10.0099 74.4411C-10.3658 68.3711 -11.0701 62.3347 -11.6929 56.2936C-11.9969 53.3426 -11.0998 50.8138 -9.19063 49.8446C-7.25926 48.8609 -5.10918 49.8878 -3.88956 52.4261C-2.82564 54.6381 -2.56614 57.1333 -2.5958 59.6956Z" fill="#212121"/>
<path d="M102.331 163.671C101.597 163.556 100.856 163.498 100.129 163.321C93.9086 161.795 90.8651 154.329 93.9902 147.217C96.9039 140.581 101.111 135.649 107.45 135.063C108.448 134.972 109.478 135.039 110.461 135.265C116.414 136.632 119.309 143.36 117.122 150.648C114.928 157.961 108.388 163.7 102.331 163.671ZM108.759 144.3C106.527 144.334 104.729 145.504 102.865 146.536C101.478 147.304 100.759 148.604 100.237 150.24C99.3987 152.86 100.173 154.477 102.364 154.487C105.727 154.497 108.511 152.788 110.598 149.353C111.243 148.288 111.862 147.026 111.291 145.639C110.742 144.305 109.626 144.353 108.759 144.3Z" fill="#212121"/>
<path d="M-9.41349 249.154C-9.79902 250.603 -10.1697 251.952 -10.5219 253.305C-10.9853 255.085 -11.723 256.601 -12.8944 257.748C-14.7294 259.548 -16.7497 259.802 -18.8146 258.703C-20.0082 258.065 -20.8497 258.425 -21.5244 259.653C-22.3029 261.064 -23.0554 262.508 -23.7004 264.024C-24.338 265.517 -24.9608 266.16 -25.8431 265.838C-26.755 265.507 -27.3593 264.312 -27.0813 262.791C-26.2991 258.506 -24.4789 255.186 -21.3242 253.286C-20.1528 252.58 -18.9628 252.868 -17.7877 253.43C-15.7896 254.375 -15.4411 254.121 -14.9592 251.405C-14.5626 249.159 -14.2771 246.87 -13.7767 244.663C-13.2985 242.552 -12.1864 241.093 -10.3921 240.93C-9.70634 240.867 -8.97605 241.055 -8.3162 241.328C-7.54884 241.65 -7.19667 241.357 -6.81114 240.484C-6.21431 239.13 -5.5248 237.82 -4.76485 236.611C-3.49705 234.591 -1.85111 233.809 0.098793 234.745C0.988483 235.172 1.39255 234.812 1.65575 233.742C1.88929 232.787 2.17474 231.851 2.48613 230.935C3.56859 227.758 5.73721 226.256 8.37663 226.827C9.71116 227.115 10.0411 226.871 10.0893 225.105C10.1597 222.518 10.649 220.119 11.6425 217.883C12.3914 216.199 13.7036 216.06 14.3783 217.778C16.2467 222.518 16.3171 227.998 12.7213 231.899C11.3905 233.344 9.8409 233.809 8.17644 233.267C7.10511 232.917 6.74182 233.425 6.39706 234.682C5.90773 236.477 5.27753 238.238 4.52129 239.865C3.43142 242.216 2.02275 242.892 -0.0494919 242.245C-0.698225 242.043 -0.96513 242.317 -1.20609 243.012C-1.56196 244.044 -1.92155 245.09 -2.37752 246.05C-3.90853 249.26 -5.93628 250.277 -8.75734 249.346C-8.91674 249.289 -9.07615 249.25 -9.41349 249.154Z" fill="#212121"/>
<path d="M44.8558 239.865C43.9883 239.769 43.1023 239.778 42.2497 239.563C40.1293 239.02 39.4101 236.396 40.7372 234.169C41.5194 232.854 42.6019 232.183 43.8326 231.909C50.6499 230.398 54.5942 235.498 55.3059 243.492C55.8361 249.438 53.6786 254.207 49.5304 256.99C46.7427 258.862 43.8623 258.372 41.6343 255.503C39.3137 252.513 38.3202 248.785 38.3462 244.601C38.3573 242.821 39.1655 241.482 40.3258 241.026C41.4712 240.575 42.7316 241.112 43.4805 242.633C44.1811 244.059 44.7075 245.632 45.3266 247.13C46.4053 249.726 46.9799 249.845 48.3293 247.461C48.8965 246.458 49.3635 245.138 49.4229 243.929C49.5526 241.29 48.1217 239.639 46.068 239.673C45.6639 239.678 45.2598 239.726 44.8558 239.754C44.8595 239.783 44.8595 239.822 44.8558 239.865Z" fill="#212121"/>
<path d="M34.3939 198.042C34.3717 203.676 33.0408 208.579 29.6118 212.289C28.9186 213.042 28.1883 213.767 27.4136 214.366C26.357 215.182 25.3821 214.635 24.5295 213.743C22.1162 211.223 20.7816 207.865 20.1403 204.002C19.6881 201.267 20.0254 198.632 20.8224 196.065C22.1533 191.8 24.3775 188.374 26.939 185.307C28.6814 183.225 31.2763 184.204 32.0622 187.092C32.229 187.707 32.4366 188.306 32.6701 188.882C33.9898 192.121 34.4236 194.4 34.3939 198.042ZM27.8881 191.651C24.8334 196.799 24.244 201.847 26.3756 205.552C28.9075 201.377 29.5711 195.494 27.8881 191.651Z" fill="#212121"/>
<path d="M-0.192547 2.63798C-1.71244 4.56693 -3.20637 6.38072 -4.62617 8.28567C-5.40094 9.32692 -6.19055 10.1139 -7.35827 9.62442C-8.53711 9.13018 -8.91522 7.85861 -8.92264 6.44309C-8.96341 0.742619 -9.0079 -4.96265 -8.93376 -10.6631C-8.9004 -13.331 -6.40555 -16.2292 -4.11089 -16.5891C1.79073 -17.5056 7.94812 -11.4548 8.73031 -3.8974C8.85264 -2.7122 8.81186 -1.45023 8.64875 -0.269835C7.79243 5.94407 3.55157 6.10721 0.849137 3.70322C0.548866 3.44411 0.278248 3.12742 -0.192547 2.63798ZM-4.641 1.27044C-4.50384 1.34722 -4.36668 1.42399 -4.23322 1.50077C-3.43992 0.34436 -2.63178 -0.788061 -1.86072 -1.96846C-0.218496 -4.48281 1.45338 -4.25249 2.58403 -1.33028C2.91396 -0.476166 3.33656 0.186012 4.13357 0.224398C5.05292 -2.52027 4.08538 -6.43575 1.79443 -8.20155C0.0928955 -9.51151 -1.83847 -10.3272 -3.68829 -11.3781C-5.34163 -7.07394 -4.18133 -2.82257 -4.641 1.27044Z" fill="#212121"/>
<path d="M164.664 208.046C158.733 206.511 153.862 203.608 150.77 197.053C148.817 192.912 147.671 188.359 147.193 183.546C146.945 181.022 147.727 179.136 149.239 178.421C150.741 177.711 152.401 178.469 153.436 180.48C153.936 181.449 154.325 182.529 154.685 183.608C155.215 185.211 155.693 186.842 156.157 188.479C157.58 193.493 160.045 197.356 163.563 200.182C165.272 201.554 166.862 203.186 168.468 204.764C169.194 205.479 168.649 206.257 168.182 206.516C166.97 207.173 165.687 207.615 164.664 208.046Z" fill="#212121"/>
<path d="M196.172 231.837C195.894 232.658 195.746 233.622 195.316 234.279C191.012 240.853 186.408 247.005 180.543 251.318C179.765 251.894 178.982 252.216 178.178 251.501C177.329 250.747 177.025 249.567 177.322 248.387C177.755 246.669 178.204 244.865 179.001 243.425C180.028 241.568 181.329 239.927 182.649 238.392C185.203 235.421 187.831 232.557 190.482 229.735C191.134 229.044 191.961 228.449 192.773 228.229C194.504 227.758 196.016 229.515 196.172 231.837Z" fill="#212121"/>
<path d="M242.77 23.0021C242.785 29.0721 241.784 34.7821 238.967 39.7484C238.333 40.8617 237.454 41.8453 236.535 42.5603C235.597 43.2896 234.737 42.7522 234.563 41.3559C234.407 40.1179 234.496 38.7696 234.693 37.522C234.967 35.7802 235.441 34.0912 235.838 32.3829C237.313 26.0059 237.632 19.5617 236.55 13.0263C236.465 12.5177 236.409 11.9946 236.398 11.4764C236.376 10.4208 236.568 9.45629 237.354 8.92847C238.196 8.35747 239.093 8.52061 239.69 9.36032C240.401 10.3632 241.061 11.5292 241.465 12.772C242.518 16.0205 242.781 19.4945 242.77 23.0021Z" fill="#212121"/>
<path d="M71.4099 62.1087C71.4322 64.9253 71.1727 67.6796 70.2682 70.2755C69.5379 72.3772 68.5444 74.239 66.9763 75.4338C65.5713 76.5086 64.0885 76.7389 62.7095 75.405C61.3564 74.0998 61.1006 72.2045 61.5232 70.2323C61.8346 68.7784 62.3277 67.3677 62.8689 66.0242C64.4592 62.0799 65.2859 57.9293 65.1636 53.462C65.1042 51.3459 65.69 50.1607 66.854 49.7625C68.0328 49.3594 69.2561 50.1799 69.8937 52.0561C70.9762 55.247 71.3691 58.6395 71.4099 62.1087Z" fill="#212121"/>
<path d="M145 -8.54254C148.151 -8.55693 150.865 -6.10496 151.814 -2.39102C152.689 1.04942 151.807 4.60501 149.534 6.78347C146.91 9.29782 142.95 9.3266 140.237 6.85544C137.542 4.39867 136.793 0.358447 138.339 -3.41308C139.707 -6.74795 142.02 -8.52814 145 -8.54254ZM145.104 -2.97642C143.662 -2.71731 142.569 -1.67606 142.669 -0.414091C142.784 1.00143 143.284 2.15784 144.311 2.80562C145.286 3.41981 146.264 3.36702 147.188 2.60408C148.522 1.50046 148.637 -0.529254 147.351 -1.70486C146.695 -2.29985 145.86 -2.56376 145.104 -2.97642Z" fill="#212121"/>
<path d="M260.801 32.4549C260.776 35.046 260.116 37.3205 258.703 39.1822C256.171 42.5219 252.06 42.282 249.973 38.4673C248.301 35.4155 247.619 31.9415 248.539 28.2036C249.995 22.2872 255.285 20.7277 258.603 25.2238C260.008 27.1239 260.801 29.739 260.801 32.4549ZM255.916 31.62C255.804 31.1066 255.719 30.3148 255.46 29.6383C254.892 28.1652 253.869 28.0212 253.209 29.4079C252.809 30.2477 252.635 31.3225 252.516 32.3206C252.375 33.5154 253.332 35.022 254.184 35.1756C254.9 35.3052 255.53 34.4702 255.767 33.0451C255.834 32.666 255.849 32.2726 255.916 31.62Z" fill="#212121"/>
<path d="M133.557 89.1766C133.902 88.999 134.284 88.8551 134.621 88.6151C136.864 87.0221 139.092 85.4002 141.331 83.7976C142.302 83.1018 143.251 82.3341 144.271 81.7775C144.931 81.4176 145.705 81.2065 146.414 81.2544C147.774 81.3456 148.423 83.169 147.622 84.6037C147.24 85.2899 146.703 85.8993 146.135 86.3311C142.017 89.4645 137.872 92.5546 133.728 95.6352C133.265 95.9807 132.768 96.2734 132.26 96.4941C130.388 97.3098 128.445 96.0526 128.345 93.5287C128.205 89.9395 128.371 86.3119 128.623 82.7275C128.749 80.933 130.08 79.9013 131.33 80.0932C132.605 80.29 133.506 81.5951 133.546 83.4521C133.591 85.3139 133.557 87.1756 133.557 89.1766Z" fill="#212121"/>
<path d="M278.492 281.889C273.262 281.831 271.968 276.519 273.273 271.899C273.532 270.982 274.007 270.128 274.507 269.38C276.142 266.937 278.181 265.56 280.687 266.563C283.278 267.604 284.805 270.09 285.269 273.544C285.551 275.656 284.972 277.498 283.816 279.01C282.281 281.011 280.364 281.793 278.492 281.889Z" fill="#212121"/>
<path d="M78.5963 133.158C78.1514 136.633 77.7363 140.107 77.2432 143.566C77.132 144.353 76.828 145.14 76.4796 145.817C75.6307 147.477 74.3999 148.283 72.8504 148C71.2971 147.712 70.2369 146.488 69.881 144.564C69.6475 143.288 69.6364 141.882 69.7587 140.567C70.0516 137.415 70.4593 134.281 70.856 131.148C71.2749 127.823 72.7762 125.951 74.8188 126.129C76.8503 126.306 78.2441 128.461 78.3961 131.69C78.4184 132.165 78.3998 132.645 78.3998 133.125C78.4665 133.134 78.5296 133.144 78.5963 133.158Z" fill="#212121"/>
<path d="M64.9763 104.714C64.4832 111.302 62.285 116.983 58.2925 121.388C57.2842 122.501 55.9052 123.12 54.6262 123.729C53.692 124.176 52.7171 123.816 52.1203 122.669C51.5123 121.498 51.7458 120.289 52.3686 119.267C53.4325 117.525 54.5891 115.875 55.6642 114.142C56.8653 112.204 58.0441 110.246 59.1748 108.24C60.0348 106.714 60.6798 105.049 60.7947 103.101C60.8244 102.597 60.9986 102.089 61.1766 101.623C61.5584 100.616 62.1404 99.9295 63.082 100.049C64.0681 100.174 64.5611 101.038 64.765 102.17C64.8984 102.924 64.8984 103.72 64.9763 104.714Z" fill="#212121"/>
<path d="M221.75 133.159C218.05 133.192 216.045 129.401 217.316 124.747C217.694 123.365 218.109 122.002 218.551 120.649C219.425 117.957 222.213 116.508 224.649 117.444C227.981 118.73 229.531 122.876 228.241 127.055C227.158 130.553 224.411 133.135 221.75 133.159ZM222.324 122.022C222.317 122.17 222.313 122.314 222.306 122.463C222.172 122.909 222.083 123.711 221.898 123.749C220.66 124.013 220.693 125.318 220.515 126.402C220.248 128.068 220.916 128.869 222.22 128.557C223.492 128.255 224.967 126.398 225.045 124.709C225.075 124.061 224.76 123.111 224.359 122.77C223.8 122.295 223.014 122.252 222.324 122.022Z" fill="#212121"/>
<path d="M120.243 96.9261C120.243 97.9673 120.421 99.0758 120.21 100.045C119.683 102.449 118.085 103.154 116.399 103.452C112.766 104.095 109.051 98.8742 109.871 94.2486C110.375 91.408 111.843 89.6134 114.011 88.9608C116.121 88.3274 117.744 89.5078 118.979 91.6863C119.857 93.2409 120.287 95.0019 120.243 96.9261ZM115.249 94.6661C115.112 94.6757 114.975 94.6852 114.838 94.6996C114.723 95.2035 114.43 95.7889 114.538 96.1967C114.705 96.8349 115.057 97.5499 115.487 97.8762C115.958 98.2361 116.247 97.6075 116.098 97.0317C115.891 96.2111 115.539 95.453 115.249 94.6661Z" fill="#212121"/>
<path d="M121.267 26.4859C118.416 26.222 115.647 26.9034 112.889 27.7047C112.596 27.7911 112.296 27.8822 111.999 27.9158C111.05 28.0262 110.253 27.6519 109.805 26.5003C109.378 25.4063 109.582 24.365 110.175 23.4725C110.591 22.8487 111.106 22.3353 111.517 21.7067C112.811 19.725 114.075 17.7193 115.347 15.7136C115.58 15.3441 115.762 14.9122 116.018 14.5763C116.937 13.3815 118.205 13.7702 118.698 15.3201C118.88 15.8911 119.172 16.4237 119.476 16.9084C120.678 18.8277 121.979 20.6607 123.076 22.6712C123.402 23.271 123.439 24.5378 123.165 25.1807C122.85 25.9149 122.038 26.294 121.445 26.8314C121.386 26.7162 121.326 26.6011 121.267 26.4859Z" fill="#212121"/>
<path d="M263.909 112.31C264.973 113.25 265.978 114.109 266.96 115.006C268.002 115.961 268.858 117.108 269.069 118.831C269.217 120.045 268.984 121.11 268.135 121.772C267.323 122.405 266.511 122.204 265.766 121.518C263.612 119.531 261.448 117.559 259.323 115.51C258.83 115.035 258.36 114.378 258.1 113.668C257.548 112.146 258.126 110.616 259.386 109.632C262.004 107.598 264.599 105.51 267.201 103.442C267.345 103.327 267.483 103.197 267.631 103.101C268.576 102.478 269.562 102.737 270.044 103.74C270.533 104.747 270.3 105.971 269.436 106.825C267.887 108.361 266.33 109.882 264.776 111.412C264.517 111.671 264.257 111.945 263.909 112.31Z" fill="#212121"/>
<path d="M39.5788 49.8727C36.8727 49.5896 34.8301 46.725 35.1563 43.3997C35.4195 40.6839 36.3092 38.2895 37.818 36.3605C40.2461 33.2608 43.4008 34.302 44.4351 38.5006C45.4582 42.6608 44.8688 45.7317 42.4184 48.0829C41.5881 48.8795 40.5316 49.2873 39.5788 49.8727Z" fill="#212121"/>
<path d="M85.6372 147.165C85.4815 150.5 84.881 153.599 83.7578 156.526C83.6688 156.761 83.5576 156.982 83.4464 157.198C82.5381 158.954 81.211 159.799 79.9618 159.41C78.6495 159.002 77.7042 157.457 77.6745 155.264C77.6523 153.801 77.8598 152.323 78.0341 150.869C78.2417 149.151 78.5605 147.457 78.7718 145.74C79.1165 142.952 80.3102 141.339 82.097 141.354C83.8541 141.363 85.1998 143.057 85.5223 145.692C85.589 146.195 85.6039 146.723 85.6372 147.165Z" fill="#212121"/>
<path d="M146.939 229.481C147.047 228.142 147.066 226.78 147.284 225.474C147.629 223.382 148.908 222.125 150.372 222.24C151.799 222.351 152.937 223.718 153.089 225.839C153.36 229.606 153.519 233.392 153.716 237.168C153.734 237.509 153.694 237.864 153.649 238.204C153.382 240.229 152.348 241.573 150.958 241.712C149.512 241.856 148.196 240.733 147.866 238.684C147.481 236.309 147.329 233.867 147.095 231.453C147.032 230.805 147.043 230.148 147.021 229.495C146.991 229.491 146.965 229.486 146.939 229.481Z" fill="#212121"/>
<path d="M290.73 20.6603C291.876 20.7227 292.71 21.38 292.984 22.5268C293.292 23.808 292.728 25.5354 291.672 26.2984C291.09 26.7158 290.426 26.9366 289.807 27.2676C286.304 29.1582 282.805 31.0584 279.302 32.9441C278.838 33.1936 278.371 33.4623 277.882 33.6063C276.736 33.9422 275.643 33.232 275.205 31.9365C274.779 30.6793 275.072 29.2398 276.006 28.3473C276.432 27.9394 276.925 27.6179 277.418 27.354C281.177 25.3531 284.936 23.3666 288.71 21.4088C289.355 21.0729 290.056 20.905 290.73 20.6603Z" fill="#212121"/>
<path d="M55.0976 201.66C54.7937 201.507 54.2005 201.315 53.689 200.941C49.3925 197.783 46.071 193.278 43.2462 188.11C42.4603 186.67 42.616 185.044 43.5205 184.117C44.425 183.191 45.6669 183.388 46.5603 184.765C49.411 189.161 52.6955 192.918 56.3432 196.161C57.4553 197.15 57.8297 198.45 57.4701 199.741C57.1291 200.993 56.4025 201.584 55.0976 201.66Z" fill="#212121"/>
<path d="M211.843 61.9411C211.731 65.8854 211.105 69.3066 210.097 72.6127C208.851 76.6913 206.43 79.0713 203.279 80.3285C201.919 80.8755 201.144 79.9206 201.559 78.1356C201.745 77.3391 202.19 76.6289 202.579 75.9332C202.812 75.5157 203.127 75.151 203.457 74.8583C206.968 71.7394 207.965 67.0466 208.328 61.9459C208.38 61.2117 208.406 60.4584 208.54 59.7482C208.732 58.7262 209.248 58.0352 210.1 58.0256C210.957 58.016 211.491 58.6878 211.661 59.729C211.802 60.5688 211.806 61.4469 211.843 61.9411Z" fill="#212121"/>
<path d="M103.546 10.5789C100.973 10.6125 99.5869 7.69505 100.625 5.16151C100.795 4.74405 100.999 4.25462 101.292 4.03869C103.82 2.18172 106.33 0.267164 108.94 -1.38828C110.022 -2.07445 111.183 -1.35949 111.794 -0.231866C112.387 0.866963 112.373 2.2489 111.687 3.55406C111.368 4.15865 111.023 4.81123 110.571 5.21909C108.806 6.80256 107.02 8.34764 105.192 9.80634C104.61 10.2622 103.887 10.4253 103.546 10.5789Z" fill="#212121"/>
<path d="M80.1212 289.988C80.0731 294.331 79.1685 297.08 77.1964 299.182C76.2511 300.19 75.1501 300.674 73.9157 300.545C72.9444 300.444 72.1511 299.916 71.7544 298.717C71.3763 297.565 71.5765 296.452 72.2067 295.559C72.7702 294.763 73.43 294.077 74.0639 293.362C75.6617 291.557 76.0583 289.628 75.3577 287.042C74.8721 285.252 75.1538 283.918 76.1436 283.314C77.1964 282.671 78.4716 283.271 79.0054 285.017C79.5911 286.927 79.9025 288.981 80.1212 289.988Z" fill="#212121"/>
<path d="M8.23961 31.1068C10.3193 31.1404 11.4796 33.0645 10.8716 34.9791C10.5343 36.0491 9.9189 37.1911 9.1812 37.7909C6.53437 39.9358 3.80599 41.9176 1.05907 43.8417C0.0210943 44.5711 -1.00947 44.1344 -1.5544 43.1027C-2.09192 42.0855 -1.96217 40.7515 -1.17628 39.6431C-0.861182 39.1969 -0.501598 38.789 -0.127186 38.4243C1.92652 36.4474 3.96539 34.4465 6.06358 32.5511C6.84206 31.8506 7.76511 31.4187 8.23961 31.1068Z" fill="#212121"/>
<path d="M75.29 243.574C75.4087 242.835 75.4606 242.178 75.6237 241.568C76.3243 238.929 78.3854 238.31 79.9461 240.249C80.0684 240.398 80.1982 240.546 80.2834 240.733C81.7737 244.025 82.4854 247.629 82.6596 251.395C82.719 252.696 82.0665 253.684 81.1138 254.198C80.1537 254.716 79.2714 254.452 78.4707 253.636C78.3409 253.502 78.2038 253.358 78.1111 253.18C76.5838 250.239 75.7682 246.957 75.29 243.574Z" fill="#212121"/>
<path d="M83.0564 28.0068C82.6819 28.6785 82.3854 29.7102 81.833 30.0557C81.3178 30.3772 80.48 30.1228 79.8757 29.8205C79.379 29.571 78.9304 28.952 78.6153 28.357C77.3216 25.9291 75.9833 23.5251 74.8601 20.9723C73.9926 19.0002 74.519 16.8985 75.8276 15.9724C77.1696 15.0175 78.8081 15.6701 79.6755 17.6998C80.6171 19.9023 81.4697 22.1767 82.2705 24.4751C82.6263 25.4828 82.7598 26.6248 83.0564 28.0068Z" fill="#212121"/>
<path d="M15.9113 10.3245C16.4673 11.7497 17.053 13.1652 17.5794 14.6143C18.2133 16.3513 18.1132 17.5221 17.3459 18.1555C16.56 18.8033 15.5109 18.4002 14.6842 16.8887C13.6166 14.9358 12.6194 12.9156 11.6704 10.8667C11.0402 9.5088 11.5258 7.97333 12.7973 7.24877C14.0281 6.54821 15.307 6.0012 16.5637 5.37741C17.5053 4.90717 18.4358 4.39374 19.3848 3.96189C20.4413 3.48685 21.2605 3.84673 21.5497 4.8208C21.8574 5.84765 21.4829 6.71615 20.445 7.35913C19.0215 8.24204 17.5942 9.12494 16.1707 10.0126C16.0892 10.0654 16.0299 10.1806 15.9113 10.3245Z" fill="#212121"/>
<path d="M169.966 120.116C169.684 120.035 169.143 119.953 168.646 119.713C166.537 118.701 164.431 117.684 162.351 116.585C160.932 115.831 160.387 114.512 160.754 113.053C161.121 111.585 162.329 110.668 163.712 111.23C166.173 112.223 168.576 113.456 170.996 114.608C171.241 114.723 171.456 114.968 171.663 115.184C172.579 116.143 172.894 117.353 172.542 118.509C172.216 119.565 171.334 120.184 169.966 120.116Z" fill="#212121"/>
<path d="M217.624 163.69C215.032 163.806 213.001 161.104 213.575 158.206C214.187 155.121 217.093 153.556 219.24 155.087C220.7 156.128 221.731 157.477 221.668 159.775C221.609 161.958 220.504 163.379 218.802 163.561C218.435 163.594 218.065 163.638 217.624 163.69Z" fill="#212121"/>
<path d="M239.647 297.901C237.649 297.901 236.051 295.833 236.055 293.256C236.058 290.675 237.652 288.616 239.651 288.616C241.649 288.616 243.246 290.684 243.243 293.261C243.235 295.843 241.641 297.901 239.647 297.901Z" fill="#212121"/>
<path d="M200.426 16.7117C200.571 13.588 201.613 11.7022 203.559 11.0496C204.971 10.5746 206.061 11.3519 206.565 13.1465C207.696 17.158 205.876 19.2261 203.488 20.2721C201.765 21.0255 200.311 19.2117 200.426 16.7117Z" fill="#212121"/>
<path d="M197.476 100.904C197.054 100.837 196.653 100.918 196.405 100.707C195.934 100.309 195.289 99.8097 195.2 99.2243C195.096 98.5669 195.423 97.6744 195.756 97.065C195.994 96.6235 196.531 96.3452 196.972 96.2205C198.8 95.6879 200.631 95.1456 202.485 94.7858C203.712 94.5459 204.49 95.208 204.676 96.2589C204.868 97.3625 204.179 98.8884 203.178 99.2866C201.899 99.7953 200.59 100.189 199.282 100.573C198.666 100.755 198.025 100.808 197.476 100.904Z" fill="#212121"/>
<path d="M165.42 296.533C165.36 294.355 166.298 292.637 167.751 292.253C169.446 291.807 170.684 293.343 171.08 296.37C171.377 298.63 170.469 300.468 168.915 300.761C166.721 301.173 165.509 299.705 165.42 296.533Z" fill="#212121"/>
<path d="M4.51795 51.6101C3.72464 51.5669 3.00918 51.1303 2.6533 50.0554C2.26777 48.899 2.36045 47.6083 3.16488 46.9797C4.67365 45.8041 6.26026 44.6812 7.92472 43.9951C9.3334 43.4145 10.3565 45.1947 9.83014 46.9413C9.26667 48.827 6.17129 51.5861 4.51795 51.6101Z" fill="#212121"/>
<path d="M166.381 121.805C167.664 121.834 168.487 122.352 168.643 123.326C168.795 124.281 168.19 125.337 167 125.754C165.544 126.273 164.053 126.647 162.563 126.959C161.555 127.17 160.791 126.484 160.598 125.433C160.387 124.272 160.858 123.053 161.903 122.732C163.371 122.285 164.887 122.103 166.381 121.805Z" fill="#212121"/>
<path d="M7.00383 211.837C7.00383 212.835 7.06314 213.838 6.9853 214.822C6.91486 215.724 6.61458 216.53 5.77308 216.588C4.94641 216.645 4.52381 215.945 4.39406 215.038C4.22353 213.853 4.17534 212.634 4.09008 211.429C4.03077 210.609 4.00852 209.788 3.9455 208.968C3.86395 207.855 4.19759 207.096 5.06133 206.847C5.81386 206.626 6.64425 207.274 6.80365 208.349C6.97047 209.491 6.97788 210.671 7.05202 211.837C7.03719 211.832 7.02236 211.832 7.00383 211.837Z" fill="#212121"/>
<path d="M131.804 271.203C131.819 272.676 131.203 273.842 130.221 274.207C129.287 274.552 128.334 274.005 127.737 272.777C127.7 272.705 127.674 272.623 127.637 272.547C127.04 271.232 126.71 269.879 127.53 268.53C128.16 267.494 129.024 267.23 129.984 267.614C131.059 268.05 131.785 269.514 131.804 271.203Z" fill="#212121"/>
<path d="M29.1251 178.172C27.8424 178.167 26.8675 176.905 26.886 175.279C26.9082 173.446 28.0871 171.915 29.4624 171.939C30.7821 171.963 31.8498 173.427 31.8386 175.197C31.8275 176.833 30.6042 178.172 29.1251 178.172Z" fill="#212121"/>
<path d="M172.165 67.4255C171.113 67.4783 170.501 66.4514 170.779 65.2806C170.975 64.4601 171.335 63.7116 171.62 62.9246C172.062 61.7106 172.499 60.4919 172.936 59.2731C173.263 58.3566 173.796 57.9103 174.556 58.2606C175.242 58.5773 175.479 59.4026 175.235 60.1752C174.519 62.4112 173.722 64.6041 172.899 66.7777C172.762 67.1376 172.321 67.2959 172.165 67.4255Z" fill="#212121"/>
<path d="M18.3347 59.0047C19.5654 58.9903 20.5144 60.1275 20.5107 61.6054C20.507 63.1025 19.4913 64.3644 18.2865 64.3692C17.141 64.3788 16.1475 63.0785 16.1141 61.5238C16.0808 60.0939 17.0261 59.019 18.3347 59.0047Z" fill="#212121"/>
<path d="M272.72 40.9194C273.821 40.905 274.618 41.8454 274.647 43.1986C274.673 44.5373 273.847 45.6506 272.827 45.6458C271.76 45.641 270.729 44.3502 270.714 42.997C270.696 41.6679 271.404 40.9385 272.72 40.9194Z" fill="#212121"/>
<path d="M111.598 53.021C113.304 53.0834 115.205 53.7839 116.673 55.8376C117.997 57.6946 118.175 60.1898 117.177 62.0803C116.64 63.0976 115.947 63.3567 114.998 63.1552C111.747 62.4546 108.577 62.9824 105.526 64.5755C105.174 64.7578 104.859 65.1657 104.607 65.5544C104.054 66.4085 103.643 66.159 103.287 65.3528C102.635 63.8653 102.635 62.2627 102.935 60.66C103.724 56.4279 107.409 53.0498 111.598 53.021Z" fill="#212121"/>
</g>
<g clip-path="url(#clip0_1111_34750)">
<path d="M217.77 95.5237C217.77 122.698 214.54 149.777 209.715 166.85C209.087 169.072 208.128 171.147 206.863 173.055C202.433 179.714 194.168 184.315 182.593 185.527V212.562C182.593 214.523 184.856 217.599 188.489 221.338C183.438 229.077 175.754 239.579 175.754 239.579C174.795 230.724 156.711 221.87 139.698 214.81C134.236 212.544 128.888 210.461 124.248 208.622C121.388 207.489 118.641 206.104 116.039 204.526V133.13C109.055 134.342 102.716 128.938 103.215 116.58C103.408 111.821 104.488 108.353 106.115 106.078C107.694 103.864 109.772 102.775 112.044 102.714C114.477 102.635 117.119 103.742 119.584 105.912C132.44 103.054 127.043 85.9979 127.043 85.9979H217.4C217.666 89.1702 217.77 92.3688 217.77 95.5237Z" fill="#7F5137" stroke="#0A0A0A" stroke-width="3" stroke-linecap="round" stroke-linejoin="round"/>
<path d="M182.593 185.527V203.036C182.593 203.646 182.52 204.317 182.383 205.04C170.937 200.918 162.704 184.464 162.704 184.464C166.563 185.326 170.808 185.806 175.504 185.858C177.985 185.884 180.353 185.78 182.593 185.527Z" fill="#0A0A0A" stroke="#0A0A0A" stroke-width="3" stroke-linecap="round" stroke-linejoin="round"/>
<path d="M164.895 256.095L152.747 247.658C157.524 250.038 161.672 252.818 164.895 256.095Z" fill="#7F5137" stroke="#0A0A0A" stroke-width="3" stroke-linecap="round" stroke-linejoin="round"/>
<path d="M195.867 254.657C193.346 255.415 190.857 255.894 188.473 256.095L195.867 254.657Z" fill="#7F5137" stroke="#0A0A0A" stroke-width="3" stroke-linecap="round" stroke-linejoin="round"/>
<path d="M191.655 216.187C191.22 216.972 190.68 217.878 190.06 218.872C189.577 219.647 189.045 220.475 188.489 221.338C184.856 217.599 182.593 214.523 182.593 212.562V198.818C190.149 199.872 195.264 209.677 191.655 216.187Z" fill="#0B2A3D" stroke="#0A0A0A" stroke-width="3" stroke-linecap="round" stroke-linejoin="round"/>
<path d="M86.8623 233.827C73.1601 241.13 57.5247 248.652 46.8513 254.84C44.6764 256.103 42.3806 257.454 39.9962 258.927C36.4116 258.012 31.1836 255.999 30.7648 251.964C30.1284 245.767 34.583 228.572 48.1724 218.872C50.2185 226.881 55.5592 230.942 63.832 232.014C68.3511 232.598 76.7125 233.017 86.8623 233.827Z" fill="#074472" stroke="#0A0A0A" stroke-width="3" stroke-linecap="round" stroke-linejoin="round"/>
<path d="M112.1 112.196C112.1 112.196 118.761 115.9 116.047 125.304" stroke="#0A0A0A" stroke-width="3" stroke-linecap="round" stroke-linejoin="round"/>
<path d="M116.039 117.181C116.039 117.181 111.254 117.617 110.07 121.46" stroke="#0A0A0A" stroke-width="3" stroke-linecap="round" stroke-linejoin="round"/>
<path d="M186.668 53.5333V85.9979H179.556C179.556 85.9979 181.134 57.8038 171.267 53.5333H186.668Z" fill="#E0742B" stroke="#0A0A0A" stroke-width="3" stroke-linecap="round" stroke-linejoin="round"/>
<path d="M151.12 95.3842C151.12 95.3842 161.713 83.9497 172.298 88.656L151.12 95.3842Z" fill="#7F5137"/>
<path d="M151.12 95.3842C151.12 95.3842 161.713 83.9497 172.298 88.656" stroke="#0A0A0A" stroke-width="3" stroke-linecap="round" stroke-linejoin="round"/>
<path d="M187.087 88.656C187.087 88.656 197.172 91.0179 201.877 95.3842L187.087 88.656Z" fill="#7F5137"/>
<path d="M187.087 88.656C187.087 88.656 197.172 91.0179 201.877 95.3842" stroke="#0A0A0A" stroke-width="3" stroke-linecap="round" stroke-linejoin="round"/>
<path d="M167.594 113.564C169.542 113.564 171.122 111.855 171.122 109.747C171.122 107.639 169.542 105.93 167.594 105.93C165.645 105.93 164.065 107.639 164.065 109.747C164.065 111.855 165.645 113.564 167.594 113.564Z" fill="#0A0A0A"/>
<path d="M193.072 113.564C195.021 113.564 196.6 111.855 196.6 109.747C196.6 107.639 195.021 105.93 193.072 105.93C191.124 105.93 189.544 107.639 189.544 109.747C189.544 111.855 191.124 113.564 193.072 113.564Z" fill="#0A0A0A"/>
<path d="M183.559 116.475C183.559 116.475 189.947 130.838 191.123 134.481C192.299 138.124 178.854 135.754 178.854 135.754" fill="#7F5137"/>
<path d="M183.559 116.475C183.559 116.475 189.947 130.838 191.123 134.481C192.299 138.124 178.854 135.754 178.854 135.754" stroke="#0A0A0A" stroke-width="3" stroke-linecap="round" stroke-linejoin="round"/>
<path d="M153.811 145.393C153.843 142.482 189.979 148.007 200.37 145.393C200.37 145.393 196.842 174.851 178.855 174.851C160.867 174.851 153.641 159.032 153.811 145.393Z" fill="white" stroke="#0A0A0A" stroke-width="3" stroke-linecap="round" stroke-linejoin="round"/>
<path d="M202.062 53.5333H186.668V85.9979H202.062V53.5333Z" fill="#F7A02D" stroke="#0A0A0A" stroke-width="3" stroke-linecap="round" stroke-linejoin="round"/>
<path d="M119.584 105.912C119.318 105.973 119.036 106.034 118.754 106.078" stroke="#0A0A0A" stroke-width="3" stroke-linecap="round" stroke-linejoin="round"/>
<path d="M198.115 349.994L195.867 254.657C198.115 285.448 198.115 326.837 198.115 349.994Z" fill="#7F5137" stroke="#0A0A0A" stroke-width="3" stroke-linecap="round" stroke-linejoin="round"/>
<path d="M116.039 133.13V131.527" stroke="#0A0A0A" stroke-width="3" stroke-linecap="round" stroke-linejoin="round"/>
<path d="M195.867 254.657L198.115 349.994C198.115 326.837 198.115 285.448 195.867 254.657ZM195.867 254.657L188.473 256.095C190.857 255.894 193.346 255.415 195.867 254.657Z" fill="#F7A02D" stroke="#0A0A0A" stroke-width="3" stroke-linecap="round" stroke-linejoin="round"/>
<path d="M276.792 332.275V478.693H-19.7825C-35.4179 381.229 -18.9608 313.59 11.3596 282.406C20.5185 272.009 30.8777 264.583 39.9964 258.927C42.3807 257.454 44.6765 256.103 46.8515 254.84C57.5248 248.652 73.1603 241.131 86.8624 233.827C76.7127 233.017 68.3512 232.598 63.8322 232.014C55.5593 230.942 50.2186 226.881 48.1725 218.872C46.2795 211.481 47.1978 200.735 51.2094 185.867C59.4903 155.163 94.362 147.659 116.039 147.519V152.897C104.745 153.097 92.4448 159.285 91.8165 170.78C91.2767 180.725 101.306 195.628 116.039 204.526C118.641 206.104 121.388 207.489 124.247 208.622C128.887 210.461 134.236 212.544 139.697 214.81C156.71 221.87 174.795 230.724 175.753 239.579C175.753 239.579 183.438 229.077 188.489 221.338C189.045 220.475 189.576 219.647 190.06 218.872C190.68 217.878 191.22 216.972 191.655 216.187C195.263 209.677 190.148 199.872 182.592 198.818V185.527C194.168 184.315 202.433 179.714 206.863 173.055C218.503 183.383 226.631 198.774 226.631 218.941C226.631 228.842 221.661 237.47 214.653 243.928C216.046 245.052 217.432 246.168 218.793 247.275C235.242 260.627 276.792 282.955 276.792 332.275Z" fill="#074472" stroke="#0A0A0A" stroke-width="3" stroke-linecap="round" stroke-linejoin="round"/>
<path d="M116.692 147.511C95.071 147.511 59.5791 154.858 51.2176 185.867C42.8562 216.876 47.9471 229.949 63.8404 232.014C79.7336 234.08 143.226 234.08 164.895 256.095" stroke="#0A0A0A" stroke-width="3" stroke-linecap="round" stroke-linejoin="round"/>
<path d="M206.919 173.526C219.002 183.845 226.631 198.295 226.631 218.933C226.631 239.57 205.01 254.709 188.473 256.086" stroke="#0A0A0A" stroke-width="3" stroke-linecap="round" stroke-linejoin="round"/>
<path d="M139.697 214.81C153.101 226.541 160.601 282.929 160.601 349.994" stroke="#0A0A0A" stroke-width="3" stroke-linecap="round" stroke-linejoin="round"/>
<path d="M190.06 218.872C198.115 236.363 198.115 314.54 198.115 349.994" stroke="#0A0A0A" stroke-width="3" stroke-linecap="round" stroke-linejoin="round"/>
<path d="M116.039 152.897V204.526C101.306 195.628 91.277 180.725 91.8167 170.78C92.445 159.285 104.746 153.097 116.039 152.897Z" fill="#0B2A3D" stroke="#0A0A0A" stroke-width="3" stroke-linecap="round" stroke-linejoin="round"/>
<path d="M121.001 107.289C120.542 106.793 120.066 106.331 119.583 105.912L121.001 107.289Z" fill="#7F5137"/>
<path d="M121.001 107.289C120.542 106.793 120.066 106.331 119.583 105.912" stroke="#0A0A0A" stroke-width="3" stroke-linecap="round" stroke-linejoin="round"/>
<path d="M136.298 167.765C144.877 178.363 156.517 185.658 175.503 185.858C177.984 185.884 180.353 185.78 182.592 185.527" fill="#7F5137"/>
<path d="M136.298 167.765C144.877 178.363 156.517 185.658 175.503 185.858C177.984 185.884 180.353 185.78 182.592 185.527" stroke="#0A0A0A" stroke-width="3" stroke-linecap="round" stroke-linejoin="round"/>
<path d="M119.584 105.912C117.119 103.742 114.477 102.635 112.044 102.714C109.772 102.775 107.694 103.864 106.115 106.078C101.379 96.6741 104.544 87.7061 110.07 82.7819C110.618 85.4488 113.051 85.9979 113.051 85.9979H127.043C127.043 85.9979 132.44 103.054 119.584 105.912Z" fill="#0A0A0A" stroke="#0A0A0A" stroke-width="3" stroke-linecap="round" stroke-linejoin="round"/>
<path d="M240.365 85.9978H202.062V53.5332H171.266C181.134 57.8037 179.555 85.9978 179.555 85.9978H113.05C113.05 85.9978 110.618 85.4487 110.07 82.7819C109.933 82.1369 109.917 81.3613 110.07 80.4461C110.859 75.7486 119.148 34.3073 166.924 34.3073C214.701 34.3073 221.411 81.7273 221.411 81.7273C221.411 81.7273 229.7 83.0084 234.042 83.4355C238.392 83.8625 244.707 85.9978 240.365 85.9978Z" fill="#F7A02D" stroke="#0A0A0A" stroke-width="3" stroke-linecap="round" stroke-linejoin="round"/>
<path d="M38.2158 286.886C61.2541 288.664 79.7573 315.812 79.7573 356.757V478.693" stroke="#0A0A0A" stroke-width="3" stroke-linecap="round" stroke-linejoin="round"/>
<path d="M254.285 293.205C263.903 302.783 262.703 324.353 262.703 337.984V478.701" stroke="#0A0A0A" stroke-width="3" stroke-linecap="round" stroke-linejoin="round"/>
<path d="M112.1 112.196C112.1 112.196 118.761 115.9 116.047 125.304" stroke="#0A0A0A" stroke-width="3" stroke-linecap="round" stroke-linejoin="round"/>
<path d="M116.039 117.181C116.039 117.181 111.254 117.617 110.07 121.46" stroke="#0A0A0A" stroke-width="3" stroke-linecap="round" stroke-linejoin="round"/>
</g>
</g>
<defs>
<clipPath id="clip0_1111_34750">
<rect width="305" height="447" fill="white" transform="translate(-27 33)"/>
</clipPath>
</defs>
</svg>
